<svg width="42" height="42" viewBox="0 0 42 42" fill="none" xmlns="http://www.w3.org/2000/svg">
<path d="M15.2824 2.76445V0.680858C15.2988 -0.188673 16.5949 -0.188673 16.6031 0.680858V2.76445C16.5949 3.63398 15.2988 3.63398 15.2824 2.76445ZM2.80547 15.2414H0.721873C-0.147658 15.2578 -0.147658 16.5539 0.721873 16.5621H2.80547C3.17461 16.5621 3.46992 16.2668 3.46992 15.8977C3.46992 15.5367 3.17461 15.2414 2.80547 15.2414ZM25.7004 7.0793L27.1687 5.61094C27.7758 4.9875 26.857 4.06875 26.2336 4.67578L24.7652 6.14414C24.1582 6.76758 25.077 7.68633 25.7004 7.0793ZM6.18515 7.0793C6.80859 7.68633 7.72734 6.76758 7.12031 6.14414L5.65195 4.67578C5.02851 4.06875 4.10976 4.9875 4.7168 5.61094L6.18515 7.0793ZM41.8934 5.65195L36.0773 24.4781C35.9789 24.8062 35.6426 24.9949 35.3145 24.9293L31.2539 24.1254L26.7668 28.3828C26.2582 30.2285 26.6191 31.623 27.8906 32.6812C28.3992 33.1652 28.9734 33.7148 28.9324 34.609C28.8996 35.3637 28.4895 35.8312 28.1859 36.1676C27.2508 37.0207 28.2762 37.6195 29.1375 38.202C29.8266 38.6531 30.5402 39.1207 30.3844 39.8836C30.2121 40.7695 29.2523 40.8023 27.7922 40.8598C26.5453 40.909 24.8391 40.9664 22.7145 41.4422C21.2051 41.7949 19.7367 42.2215 18.1699 41.7785C17.3168 41.557 15.9715 41.073 15.4711 40.1707H14.4539C13.166 40.1707 12.116 39.1207 12.116 37.8328V36.8156H11.5664C9.49101 36.8402 8.44101 34.207 9.94219 32.8043C8.77734 31.7625 9.11367 29.6133 10.5902 29.0145C10.541 27.1687 9.74531 25.4215 8.30976 24.0844C1.21406 17.4891 5.60273 5.45508 15.225 4.83164C20.2945 4.51172 24.9129 7.66172 26.5043 12.4031C30.9996 10.0734 36.4793 7.21055 40.95 4.88086C41.4586 4.59375 42.082 5.11875 41.8934 5.65195ZM11.9191 28.7848H19.9746C20.073 26.857 20.8195 25.0523 22.0664 23.6988C21.8941 23.4691 21 22.2879 20.8441 22.0828L11.4516 20.2371C15.9551 17.8992 20.8277 15.3562 25.3312 13.0102C21.8531 2.60859 6.89062 4.55273 6.12773 15.5039C6.00469 18.375 7.12851 21.1477 9.22031 23.1082C10.8609 24.6504 11.8125 26.6602 11.9191 28.7848ZM10.5492 31.1227C10.5492 31.6805 11.0086 32.1398 11.5664 32.1398H20.3109C21.6562 32.1234 21.6398 30.1383 20.3109 30.1137H11.5664C11.025 30.0973 10.541 30.5812 10.5492 31.1227ZM20.3109 35.4949C21.648 35.4621 21.648 33.5016 20.3109 33.4687H11.5664C10.2293 33.5098 10.2375 35.4621 11.5746 35.4949H20.3109ZM17.4234 38.85C17.9812 38.85 18.4406 38.3906 18.4406 37.8328V36.8156H13.4449V37.8328C13.4449 38.3906 13.8961 38.85 14.4621 38.85H17.4234ZM25.4543 28.1859L22.8785 24.7816C21.9023 25.9219 21.3363 27.423 21.2871 29.0145C22.7227 29.6133 23.1246 31.7461 21.9352 32.8125C23.4363 34.2152 22.3863 36.8566 20.3109 36.8238H19.7613V37.841C19.7613 39.0961 18.7687 40.1133 17.5219 40.1707C19.0723 40.9582 20.7785 40.5973 22.4273 40.1625C25.241 39.5555 26.7504 39.6211 28.6863 39.5062C27.0703 38.5711 25.5281 37.0699 27.1934 35.3062C27.8004 34.6172 27.7676 34.3793 26.9801 33.6492C25.4625 32.3941 24.8473 30.3762 25.4543 28.1859ZM31.5574 15.348L31.3934 15.4629L22.173 21.648L22.3453 21.8777L23.8383 23.8547L25.8152 26.4715L26.5863 22.5504C27.8824 20.4012 30.1793 17.407 31.5574 15.348ZM29.6625 23.8219C29.523 23.7973 27.825 23.4609 27.7512 23.4445L27.2262 26.1352L29.6625 23.8219ZM40.1625 6.77578C37.3078 8.26055 32.6156 10.7051 29.7035 12.2227C25.0441 14.6508 20.0812 17.2266 15.4137 19.6629L21.082 20.7785L33.7723 12.2719C33.9527 12.1652 34.1824 12.1324 34.3793 12.2145C34.773 12.3457 34.9371 12.8625 34.691 13.1988C32.5746 16.2012 30.4664 19.2117 28.3582 22.2141L28.4812 22.2387L34.9945 23.5184L40.1625 6.77578ZM6.18515 24.7242L4.7168 26.1926C4.29844 26.5863 4.61836 27.341 5.18437 27.3246C5.35664 27.3246 5.5207 27.259 5.65195 27.1277L7.12031 25.6594C7.38281 25.3969 7.38281 24.9785 7.12031 24.7242C6.86601 24.4699 6.44765 24.4699 6.18515 24.7242Z" fill="#F56E41"/>
</svg>
