<svg width="38" height="36" viewBox="0 0 38 36" fill="none" xmlns="http://www.w3.org/2000/svg">
<path d="M33.1754 25.7074H30.7268C30.6395 25.7074 30.5531 25.7246 30.4724 25.758C30.3918 25.7914 30.3185 25.8404 30.2568 25.9021C30.1951 25.9638 30.1462 26.0371 30.1128 26.1177C30.0794 26.1983 30.0622 26.2847 30.0622 26.372C30.0622 26.4593 30.0794 26.5457 30.1128 26.6263C30.1462 26.7069 30.1951 26.7802 30.2568 26.8419C30.3185 26.9036 30.3918 26.9526 30.4724 26.986C30.5531 27.0194 30.6395 27.0366 30.7268 27.0366H33.1754C33.2627 27.0366 33.3491 27.0194 33.4298 26.986C33.5104 26.9526 33.5836 26.9036 33.6454 26.8419C33.7071 26.7802 33.756 26.7069 33.7894 26.6263C33.8228 26.5457 33.84 26.4593 33.84 26.372C33.84 26.2847 33.8228 26.1983 33.7894 26.1177C33.756 26.0371 33.7071 25.9638 33.6454 25.9021C33.5836 25.8404 33.5104 25.7914 33.4298 25.758C33.3491 25.7246 33.2627 25.7074 33.1754 25.7074ZM33.1754 29.2976H30.7268C30.5505 29.2976 30.3815 29.3676 30.2568 29.4922C30.1322 29.6168 30.0622 29.7859 30.0622 29.9621C30.0622 30.1384 30.1322 30.3074 30.2568 30.432C30.3815 30.5567 30.5505 30.6267 30.7268 30.6267H33.1754C33.3517 30.6267 33.5207 30.5567 33.6454 30.432C33.77 30.3074 33.84 30.1384 33.84 29.9621C33.84 29.7859 33.77 29.6168 33.6454 29.4922C33.5207 29.3676 33.3517 29.2976 33.1754 29.2976ZM30.7268 23.0951H33.0175C33.1938 23.0951 33.3628 23.0251 33.4874 22.9005C33.6121 22.7759 33.6821 22.6068 33.6821 22.4306C33.6821 22.2543 33.6121 22.0853 33.4874 21.9606C33.3628 21.836 33.1938 21.766 33.0175 21.766H30.7268C30.5505 21.766 30.3815 21.836 30.2568 21.9606C30.1322 22.0853 30.0622 22.2543 30.0622 22.4306C30.0622 22.6068 30.1322 22.7759 30.2568 22.9005C30.3815 23.0251 30.5505 23.0951 30.7268 23.0951ZM30.0622 18C30.0622 18.3671 30.3597 18.6646 30.7268 18.6646H33.0175C33.1048 18.6646 33.1912 18.6474 33.2718 18.614C33.3525 18.5806 33.4257 18.5316 33.4874 18.4699C33.5491 18.4082 33.5981 18.3349 33.6315 18.2543C33.6649 18.1737 33.6821 18.0873 33.6821 18C33.6821 17.9127 33.6649 17.8263 33.6315 17.7457C33.5981 17.6651 33.5491 17.5918 33.4874 17.5301C33.4257 17.4684 33.3525 17.4194 33.2718 17.386C33.1912 17.3526 33.1048 17.3354 33.0175 17.3354H30.7268C30.3597 17.3354 30.0622 17.6329 30.0622 18ZM26.6051 17.3354H24.3148C24.2275 17.3354 24.1411 17.3526 24.0604 17.386C23.9798 17.4194 23.9065 17.4684 23.8448 17.5301C23.7831 17.5918 23.7342 17.6651 23.7008 17.7457C23.6674 17.8263 23.6502 17.9127 23.6502 18C23.6502 18.0873 23.6674 18.1737 23.7008 18.2543C23.7342 18.3349 23.7831 18.4082 23.8448 18.4699C23.9065 18.5316 23.9798 18.5806 24.0604 18.614C24.1411 18.6474 24.2275 18.6646 24.3148 18.6646H26.6051C26.6923 18.6646 26.7788 18.6474 26.8594 18.614C26.94 18.5806 27.0133 18.5316 27.075 18.4699C27.1367 18.4082 27.1856 18.3349 27.219 18.2543C27.2524 18.1737 27.2696 18.0873 27.2696 18C27.2696 17.9127 27.2524 17.8263 27.219 17.7457C27.1856 17.6651 27.1367 17.5918 27.075 17.5301C27.0133 17.4684 26.94 17.4194 26.8594 17.386C26.7788 17.3526 26.6923 17.3354 26.6051 17.3354ZM26.6051 13.7913H24.3148C24.1385 13.7913 23.9695 13.8613 23.8448 13.9859C23.7202 14.1105 23.6502 14.2796 23.6502 14.4558C23.6502 14.6321 23.7202 14.8011 23.8448 14.9257C23.9695 15.0504 24.1385 15.1204 24.3148 15.1204H26.6051C26.7813 15.1204 26.9504 15.0504 27.075 14.9257C27.1996 14.8011 27.2696 14.6321 27.2696 14.4558C27.2696 14.2796 27.1996 14.1105 27.075 13.9859C26.9504 13.8613 26.7813 13.7913 26.6051 13.7913Z" fill="#F56E41"/>
<path d="M36.7196 2.27231C36.3526 2.27231 36.0551 2.56981 36.0551 2.93687V4.93056H33.5954V2.05094C33.5954 1.87468 33.5254 1.70565 33.4008 1.58102C33.2762 1.45639 33.1071 1.38638 32.9309 1.38638C32.7546 1.38638 32.5856 1.45639 32.461 1.58102C32.3363 1.70565 32.2663 1.87468 32.2663 2.05094V4.93056H25.5441V1.16456C25.5441 0.98831 25.4741 0.819275 25.3495 0.694646C25.2248 0.570016 25.0558 0.5 24.8796 0.5C24.7033 0.5 24.5343 0.570016 24.4096 0.694646C24.285 0.819275 24.215 0.98831 24.215 1.16456V4.93056H20.7701C20.6829 4.93056 20.5964 4.94775 20.5158 4.98115C20.4352 5.01455 20.3619 5.0635 20.3002 5.12521C20.2385 5.18692 20.1895 5.26018 20.1561 5.34081C20.1228 5.42144 20.1056 5.50785 20.1056 5.59512C20.1056 5.6824 20.1228 5.76881 20.1561 5.84944C20.1895 5.93007 20.2385 6.00333 20.3002 6.06504C20.3619 6.12675 20.4352 6.1757 20.5158 6.2091C20.5964 6.2425 20.6829 6.25969 20.7701 6.25969H24.215V9.36112C24.215 9.36112 21.4762 9.38038 21.3966 9.41406C20.8996 9.53569 20.5216 9.96706 20.5216 10.5043V19.9526H20.0377C19.6702 19.9526 19.3732 20.2501 19.3732 20.6171V26.5479H15.99V24.6456C16.1873 24.5542 16.3623 24.4671 16.4975 24.3866C16.84 24.183 17.1689 23.9573 17.4819 23.7107C17.5956 23.6199 17.6765 23.4944 17.712 23.3533L18.7546 19.2127C18.7909 19.0684 18.7777 18.9152 18.7174 18.7792C18.5526 18.419 18.3699 18.0672 18.1701 17.7253C18.0712 17.5599 17.8201 17.2007 16.7893 16.0068C16.3784 15.5305 15.874 15.1437 15.3073 14.8706C14.7407 14.5975 14.1239 14.4438 13.4954 14.4191C13.4954 14.4191 6.38294 13.7716 3.57856 14.4694C2.92406 14.6321 2.37062 15.0386 2.20437 15.6939L1.44969 18.6768C1.37553 18.9672 1.38255 19.2724 1.46995 19.5591C1.55736 19.8458 1.72182 20.1029 1.94537 20.3026C2.23631 20.562 2.634 20.9076 3.02031 21.2397V26.5636C2.40125 26.6012 1.80275 26.8576 1.36087 27.2986C0.92775 27.7343 0.664192 28.3101 0.617562 28.9226C0.613187 28.9537 0.613187 30.2517 0.617562 30.2828C0.664333 30.8957 0.928031 31.4718 1.36131 31.9077C1.79794 32.343 2.38812 32.5972 3.00019 32.6396C3.19575 34.2461 4.55244 35.5 6.21056 35.5C7.86344 35.5 9.21619 34.2553 9.41831 32.6567H20.1117C20.3138 34.2553 21.6666 35.5 23.3194 35.5C24.1658 35.4995 24.9783 35.1673 25.5826 34.5747L36.2497 34.6141C36.5505 34.6137 36.8389 34.4941 37.0515 34.2814C37.2642 34.0687 37.3838 33.7804 37.3842 33.4796V2.93687C37.3842 2.56981 37.0867 2.27231 36.7196 2.27231ZM36.0551 6.25969V12.0544H33.5915L33.5954 6.25925H36.0551V6.25969ZM32.2663 6.25969V9.36112H25.5441V6.25969H32.2663ZM26.4178 31.3276C26.0166 29.9879 24.7877 29.0031 23.3194 29.0031C22.2432 29.0031 21.2938 29.5351 20.7027 30.3445V26.0207H27.1546V31.0436C27.1544 31.1188 27.1246 31.1909 27.0714 31.2441C27.0183 31.2973 26.9463 31.3273 26.8711 31.3276H26.4178ZM20.7027 24.6916V21.2812H23.2787C24.0015 21.2812 24.6744 21.6369 25.0791 22.2324C25.6354 23.0513 26.1906 23.8711 26.7446 24.6916H20.7027ZM14.6613 26.5474H4.35075V22.3628C4.38662 22.3886 10.6481 25.238 10.6481 25.238C11.6953 25.7142 12.8839 25.7767 13.9753 25.413C14.2049 25.3361 14.4336 25.2566 14.6613 25.1746V26.5474ZM17.0234 18.3964C17.1603 18.6352 17.2911 18.8741 17.4084 19.1165L16.48 22.8046C14.9295 23.8599 13.0815 24.2707 12.8387 24.2939L14.828 16.1275C15.1863 16.3156 15.5144 16.5628 15.7835 16.8748C16.7806 18.0293 16.9892 18.3391 17.0234 18.3964ZM2.739 19.001L3.49369 16.019C3.50881 15.9587 3.54157 15.9042 3.58778 15.8626C3.63399 15.821 3.69156 15.7941 3.75312 15.7854C4.64125 15.6694 6.1445 15.5111 6.42712 15.4817C6.42712 15.4817 13.5146 15.7583 13.5496 15.7604L11.51 24.1316C11.4059 24.0966 5.0945 21.2611 5.0945 21.2611C4.78256 20.9964 3.51075 19.9162 2.83175 19.3107C2.78926 19.2727 2.75812 19.2236 2.74175 19.1689C2.72538 19.1143 2.72443 19.0562 2.739 19.001ZM6.21056 34.1709C5.15225 34.1709 4.29125 33.3099 4.29125 32.2516C4.29125 31.1932 5.15225 30.3323 6.21056 30.3323C7.26887 30.3323 8.13031 31.1932 8.13031 32.2516C8.13031 33.3099 7.26887 34.1709 6.21056 34.1709ZM6.21056 29.0031C4.74669 29.0031 3.52081 29.9827 3.11569 31.3162C2.81061 31.304 2.52081 31.1795 2.30194 30.9666C2.0718 30.7352 1.94212 30.4224 1.941 30.096V29.1081C1.941 28.7844 2.07269 28.4668 2.3015 28.2384C2.53288 28.0078 2.84589 27.8777 3.17256 27.8766H19.3736V31.3276H9.30937C8.90819 29.9879 7.67881 29.0031 6.21056 29.0031ZM21.4001 32.2516C21.4001 31.1932 22.2611 30.3323 23.3194 30.3323C24.3777 30.3323 25.2387 31.1932 25.2387 32.2516C25.2387 32.6667 25.1027 33.0496 24.8774 33.3641C24.757 33.4333 24.6618 33.539 24.6057 33.666C24.2552 33.9893 23.7963 34.1695 23.3194 34.1709C22.8106 34.1703 22.3227 33.9679 21.9629 33.6081C21.6031 33.2483 21.4007 32.7604 21.4001 32.2516ZM36.0551 33.2849H26.3841C26.4524 33.0832 26.4996 32.8741 26.5272 32.6567H26.8711C27.2987 32.6562 27.7087 32.4861 28.011 32.1837C28.3133 31.8813 28.4833 31.4713 28.4837 31.0436V25.0945C28.4837 24.9619 28.4439 24.8324 28.3699 24.7226C28.3699 24.7226 27.0797 22.8112 26.1785 21.4856C25.8572 21.0125 25.4249 20.6254 24.9194 20.3581C24.4139 20.0908 23.8506 19.9514 23.2787 19.9521H21.8512V10.6898H32.2624V13.3835H36.0551V33.2849Z" fill="#F56E41"/>
<path d="M6.21056 30.9469C5.86462 30.9473 5.53297 31.0849 5.28843 31.3296C5.0439 31.5743 4.90649 31.9061 4.90637 32.252C4.90637 32.9712 5.49131 33.5562 6.21056 33.5562C6.92981 33.5562 7.51518 32.9712 7.51518 32.252C7.51495 31.906 7.37744 31.5743 7.13284 31.3296C6.88824 31.0849 6.55654 30.9473 6.21056 30.9469ZM6.21056 32.6694C6.15563 32.6693 6.10126 32.6584 6.05054 32.6374C5.99981 32.6163 5.95374 32.5854 5.91494 32.5466C5.87614 32.5077 5.84538 32.4615 5.82442 32.4108C5.80345 32.36 5.79269 32.3056 5.79275 32.2507C5.7928 32.1958 5.80368 32.1414 5.82475 32.0907C5.84582 32.0399 5.87668 31.9939 5.91556 31.9551C5.95444 31.9163 6.00058 31.8855 6.05134 31.8645C6.10211 31.8436 6.15651 31.8328 6.21143 31.8329C6.32236 31.833 6.4287 31.8772 6.50705 31.9557C6.58541 32.0342 6.62936 32.1406 6.62925 32.2516C6.62913 32.3625 6.58495 32.4688 6.50643 32.5472C6.42792 32.6255 6.32149 32.6695 6.21056 32.6694ZM24.6236 32.2516C24.6236 31.5314 24.0387 30.9465 23.3194 30.9465C22.6002 30.9465 22.0148 31.5314 22.0148 32.2516C22.0148 32.9708 22.6002 33.5558 23.3194 33.5558C24.0387 33.5558 24.6236 32.9708 24.6236 32.2516ZM23.3194 32.6694C23.2118 32.6645 23.1102 32.6182 23.0358 32.5403C22.9614 32.4624 22.9199 32.3589 22.9199 32.2511C22.9199 32.1434 22.9614 32.0398 23.0358 31.9619C23.1102 31.884 23.2118 31.8378 23.3194 31.8329C23.4271 31.8378 23.5286 31.884 23.603 31.9619C23.6775 32.0398 23.719 32.1434 23.719 32.2511C23.719 32.3589 23.6775 32.4624 23.603 32.5403C23.5286 32.6182 23.4271 32.6645 23.3194 32.6694Z" fill="#F56E41"/>
</svg>
