<svg width="40" height="34" viewBox="0 0 40 34" fill="none" xmlns="http://www.w3.org/2000/svg">
<path d="M37.0625 18.6314H34.6692C36.0315 17.7921 36.2592 15.6901 35.0852 14.5843L31.7357 11.2342L33.2143 9.75631C33.5797 9.93402 33.9916 9.99305 34.3922 9.92516C34.7929 9.85726 35.1623 9.66584 35.4488 9.37766L38.6972 6.12922C39.0657 5.75968 39.2726 5.25914 39.2726 4.73731C39.2726 4.21548 39.0657 3.71494 38.6972 3.34541L36.8413 1.48953C36.0972 0.745344 34.8004 0.745344 34.0569 1.48953L30.8084 4.73797C30.2224 5.30628 30.0629 6.24538 30.4291 6.97316L28.9519 8.45038L25.6024 5.10153C24.3188 3.73391 21.825 4.30747 21.2705 6.09772L18.0837 15.2504C17.4082 14.8391 16.6219 14.6472 15.8328 14.7012C14.7073 11.3635 9.91869 11.1837 8.53006 14.4111C5.77578 13.0225 2.38691 15.6035 2.99722 18.6308C2.64764 18.6235 2.30011 18.6859 1.97495 18.8145C1.64979 18.943 1.35353 19.1351 1.10349 19.3796C0.853448 19.624 0.654651 19.9158 0.518724 20.238C0.382796 20.5601 0.312465 20.9061 0.311844 21.2558V23.8808C0.311844 24.6689 0.667531 25.3685 1.21878 25.8495C0.935316 26.0935 0.707623 26.3956 0.551142 26.7352C0.394661 27.0749 0.31305 27.4443 0.311844 27.8183V30.4433C0.311844 31.891 1.48916 33.0683 2.93684 33.0683H18.0306C18.8181 33.0683 19.5177 32.7126 19.9993 32.1613C20.481 32.7126 21.1806 33.0689 21.9681 33.0689H37.0618C38.5095 33.0689 39.6868 31.891 39.6868 30.4439V27.8189C39.6868 27.0314 39.3312 26.3312 38.7799 25.8502C39.0634 25.6062 39.2911 25.3042 39.4475 24.9645C39.604 24.6248 39.6856 24.2554 39.6868 23.8814V21.2564C39.6868 19.8088 38.5102 18.6314 37.0625 18.6314ZM31.7364 5.66591L34.9848 2.41747C35.1082 2.29508 35.275 2.22641 35.4488 2.22641C35.6226 2.22641 35.7893 2.29508 35.9128 2.41747L37.7686 4.27334C38.0246 4.52928 38.0246 4.94534 37.7686 5.20128L34.5208 8.44972C34.2649 8.70566 33.8488 8.70566 33.5923 8.44972L31.7364 6.59319C31.614 6.4699 31.5454 6.30324 31.5454 6.12955C31.5454 5.95585 31.614 5.7892 31.7364 5.66591ZM31.2724 7.98575L32.2003 8.91369L27.56 13.554C27.3041 13.81 26.888 13.81 26.6321 13.554C26.5094 13.4308 26.4405 13.264 26.4405 13.0901C26.4405 12.9162 26.5094 12.7493 26.6321 12.6261L31.2724 7.98575ZM19.011 16.58C19.0104 16.58 22.5108 6.52822 22.5102 6.52691C22.7838 5.62981 24.0353 5.34959 24.6745 6.02947L28.024 9.37831L25.7041 11.6982C25.3355 12.0676 25.1285 12.5682 25.1285 13.0901C25.1285 13.6119 25.3355 14.1125 25.7041 14.482C26.0735 14.8507 26.5741 15.0579 27.096 15.0579C27.618 15.0579 28.1186 14.8507 28.4879 14.482L30.8078 12.1628L34.1573 15.5123C34.8358 16.1528 34.5576 17.4029 33.6572 17.6773L19.1232 22.7369C18.1303 23.1228 17.0613 22.059 17.4498 21.0648L19.011 16.58ZM6.875 15.3502C7.46103 15.3502 8.02016 15.5497 8.49266 15.9277C8.8595 16.2394 9.47506 16.0104 9.54791 15.5346C10.0893 12.6845 14.1843 12.6911 14.7008 15.5477C14.7559 15.9087 15.1405 16.1659 15.4935 16.0747C16.2495 15.8942 17.0305 16.0813 17.6362 16.538L16.9077 18.6314H12.125C11.3375 18.6314 10.6379 18.9871 10.1563 19.5384C9.91229 19.2549 9.61022 19.0272 9.27054 18.8707C8.93085 18.7143 8.56149 18.6326 8.1875 18.6314H4.34516C3.87266 17.0112 5.195 15.3239 6.875 15.3502ZM1.625 21.2564C1.625 20.5326 2.21366 19.9439 2.9375 19.9439H8.1875C8.91134 19.9439 9.5 20.5326 9.5 21.2564V23.8814C9.5 24.6053 8.91134 25.1939 8.1875 25.1939H2.9375C2.21366 25.1939 1.625 24.6053 1.625 23.8814V21.2564ZM19.3437 30.4439C19.3437 31.1678 18.7551 31.7564 18.0312 31.7564H2.9375C2.21366 31.7564 1.625 31.1678 1.625 30.4439V27.8189C1.625 27.0951 2.21366 26.5064 2.9375 26.5064H18.0312C18.7551 26.5064 19.3437 27.0951 19.3437 27.8189V30.4439ZM12.125 25.1939C11.4012 25.1939 10.8125 24.6053 10.8125 23.8814V21.2564C10.8125 20.5326 11.4012 19.9439 12.125 19.9439H16.451L16.2102 20.635C15.5802 22.271 16.9537 24.1722 18.6842 24.1229C18.7886 24.394 28.1119 20.9401 28.4689 20.8725C28.5857 21.0386 28.5129 23.6334 28.5312 23.8814C28.5312 24.6053 27.9426 25.1939 27.2187 25.1939H12.125ZM38.375 30.4439C38.375 31.1678 37.7863 31.7564 37.0625 31.7564H21.9687C21.2449 31.7564 20.6562 31.1678 20.6562 30.4439V27.8189C20.6562 27.0951 21.2449 26.5064 21.9687 26.5064H37.0625C37.7863 26.5064 38.375 27.0951 38.375 27.8189V30.4439ZM38.375 23.8814C38.375 24.6053 37.7863 25.1939 37.0625 25.1939H31.1562C30.4324 25.1939 29.8437 24.6053 29.8437 23.8814V21.2564C29.8437 20.8423 30.0432 20.4578 30.3733 20.2097L31.1346 19.9446L37.0625 19.9439C37.7863 19.9439 38.375 20.5326 38.375 21.2564V23.8814Z" fill="#F56E41"/>
</svg>
