<svg width="42" height="42" viewBox="0 0 42 42" fill="none" xmlns="http://www.w3.org/2000/svg">
<path d="M31.5113 10.8998L29.1092 0.721308C29.071 0.562926 28.9716 0.426129 28.8328 0.340822C28.6939 0.255514 28.527 0.228633 28.3684 0.266056C28.2098 0.303479 28.0725 0.402161 27.9865 0.540531C27.9004 0.678901 27.8727 0.845704 27.9093 1.00448L30.3114 11.183C30.349 11.342 30.4482 11.4796 30.5872 11.5656C30.7262 11.6515 30.8937 11.6788 31.0528 11.6414C31.1316 11.6228 31.2059 11.5889 31.2716 11.5415C31.3373 11.4942 31.393 11.4344 31.4356 11.3655C31.4782 11.2967 31.5068 11.2201 31.5198 11.1402C31.5327 11.0603 31.5298 10.9786 31.5113 10.8998ZM38.6138 40.9955L31.9794 12.883C31.9418 12.7239 31.8425 12.5863 31.7035 12.5004C31.5644 12.4144 31.397 12.3872 31.2378 12.4246C31.0787 12.4622 30.941 12.5614 30.8551 12.7004C30.7691 12.8395 30.7419 13.007 30.7795 13.1662L37.4138 41.2785C37.4514 41.4376 37.5506 41.5752 37.6897 41.6612C37.8287 41.7471 37.9962 41.7744 38.1553 41.7369C38.4867 41.6588 38.6919 41.3268 38.6138 40.9955ZM5.07518 36.5226C4.74435 36.4446 4.4118 36.6496 4.33362 36.981L3.38624 40.9955C3.35098 41.1537 3.3795 41.3195 3.46562 41.4569C3.55174 41.5943 3.68853 41.6923 3.84636 41.7295C4.00418 41.7667 4.17032 41.7403 4.30879 41.6559C4.44725 41.5715 4.54689 41.436 4.58611 41.2786L5.53349 37.2642C5.55209 37.1854 5.555 37.1037 5.54203 37.0238C5.52907 36.9439 5.50049 36.8673 5.45793 36.7985C5.41537 36.7296 5.35967 36.6698 5.294 36.6225C5.22832 36.5752 5.15397 36.5412 5.07518 36.5226ZM13.6323 0.262918C13.3015 0.184742 12.969 0.389902 12.8907 0.721308L4.94656 34.3837C4.90997 34.5424 4.93772 34.7092 5.02376 34.8476C5.10979 34.986 5.24711 35.0847 5.40569 35.1221C5.56427 35.1595 5.73122 35.1326 5.87003 35.0473C6.00885 34.962 6.10825 34.8252 6.14651 34.6668L14.0906 1.00448C14.1282 0.845356 14.101 0.677834 14.015 0.538765C13.9291 0.399696 13.7914 0.300471 13.6323 0.262918ZM41.9765 40.9693L30.5896 0.69514C30.5684 0.616392 30.5317 0.542647 30.4817 0.478178C30.4318 0.413709 30.3695 0.359799 30.2985 0.31957C30.2276 0.279341 30.1493 0.253594 30.0684 0.243821C29.9874 0.234048 29.9053 0.240443 29.8268 0.262635C29.7483 0.284828 29.675 0.322377 29.6111 0.373106C29.5472 0.423836 29.4941 0.486737 29.4547 0.558165C29.4153 0.629593 29.3905 0.708127 29.3816 0.789218C29.3728 0.870308 29.3802 0.952342 29.4033 1.03056L40.7902 41.3047C40.8267 41.4338 40.9044 41.5475 41.0114 41.6285C41.1183 41.7096 41.2488 41.7535 41.383 41.7536C41.4386 41.7536 41.495 41.746 41.5511 41.7301C41.629 41.7081 41.7018 41.671 41.7654 41.6208C41.8289 41.5707 41.8819 41.5085 41.9214 41.4378C41.9609 41.3672 41.9861 41.2894 41.9956 41.209C42.005 41.1286 41.9986 41.0472 41.9765 40.9693ZM12.1712 0.269727C12.0139 0.225272 11.8453 0.245125 11.7027 0.324919C11.56 0.404713 11.4548 0.537912 11.4104 0.695222L0.0233797 40.9694C0.00134319 41.0473 -0.00513323 41.1287 0.00432034 41.2091C0.0137739 41.2895 0.0389723 41.3673 0.0784765 41.4379C0.117981 41.5086 0.171017 41.5708 0.234556 41.621C0.298096 41.6711 0.370894 41.7083 0.448793 41.7303C0.503475 41.7458 0.560035 41.7537 0.616875 41.7537C0.751069 41.7536 0.881557 41.7097 0.988543 41.6287C1.09553 41.5477 1.17318 41.434 1.20971 41.3049L12.5967 1.03073C12.6412 0.87339 12.6213 0.704836 12.5415 0.562128C12.4617 0.419421 12.3285 0.314245 12.1712 0.269727ZM22.5959 0.843862C22.5936 0.762867 22.5754 0.683112 22.5423 0.609189C22.5091 0.535265 22.4616 0.468633 22.4026 0.413127C22.3436 0.357622 22.2741 0.31434 22.1983 0.285774C22.1225 0.257207 22.0418 0.243919 21.9608 0.246676C21.8799 0.249148 21.8002 0.267537 21.7264 0.300794C21.6526 0.334052 21.5861 0.381524 21.5306 0.440501C21.4752 0.499477 21.4319 0.568802 21.4032 0.644514C21.3746 0.720227 21.3611 0.800844 21.3636 0.88176L21.4361 3.24056H20.564L20.6365 0.88176C20.639 0.800847 20.6255 0.720234 20.5968 0.644527C20.5682 0.568819 20.5249 0.499498 20.4694 0.440524C20.414 0.38155 20.3474 0.334077 20.2736 0.300816C20.1998 0.267555 20.1202 0.249158 20.0393 0.246676C19.7031 0.236258 19.4146 0.503597 19.4042 0.843862L19.3122 3.83816C19.3096 3.92068 19.3236 4.00288 19.3534 4.07988C19.3833 4.15687 19.4282 4.22708 19.4857 4.28635C19.5432 4.34562 19.612 4.39274 19.6881 4.4249C19.7641 4.45706 19.8458 4.47361 19.9284 4.47357H22.0719C22.1545 4.47355 22.2362 4.45695 22.3122 4.42476C22.3882 4.39258 22.457 4.34546 22.5144 4.2862C22.5719 4.22694 22.6169 4.15675 22.6467 4.07979C22.6765 4.00283 22.6906 3.92066 22.6881 3.83816L22.5959 0.843862ZM22.7356 5.38658C22.7307 5.22645 22.6636 5.07452 22.5486 4.96299C22.4336 4.85147 22.2796 4.78911 22.1194 4.78915H19.8806C19.7204 4.78914 19.5664 4.8515 19.4514 4.96302C19.3364 5.07454 19.2694 5.22645 19.2644 5.38658L19.1025 10.6436C19.0999 10.7261 19.114 10.8083 19.1438 10.8853C19.1736 10.9623 19.2186 11.0325 19.2761 11.0918C19.3335 11.151 19.4023 11.1982 19.4783 11.2303C19.5544 11.2625 19.6361 11.2791 19.7186 11.2791H22.2814C22.3639 11.2791 22.4456 11.2625 22.5216 11.2303C22.5976 11.1981 22.6664 11.151 22.7239 11.0917C22.7813 11.0324 22.8263 10.9622 22.8561 10.8853C22.8859 10.8083 22.9 10.7261 22.8975 10.6436L22.7356 5.38658ZM20.3543 10.0462L20.4782 6.02207H21.5217L21.6456 10.0462H20.3543ZM22.9583 12.6195C22.9534 12.4594 22.8863 12.3075 22.7713 12.1959C22.6563 12.0844 22.5024 12.0221 22.3422 12.0221H19.6578C19.4976 12.0221 19.3437 12.0845 19.2287 12.196C19.1137 12.3075 19.0466 12.4594 19.0416 12.6195L18.8567 18.6195C18.8542 18.702 18.8682 18.7842 18.8981 18.8612C18.9279 18.9382 18.9728 19.0084 19.0303 19.0676C19.0878 19.1269 19.1566 19.174 19.2326 19.2062C19.3086 19.2384 19.3903 19.255 19.4729 19.255H22.5271C22.6097 19.255 22.6914 19.2384 22.7674 19.2062C22.8434 19.174 22.9122 19.1268 22.9696 19.0676C23.0271 19.0083 23.072 18.9381 23.1019 18.8611C23.1317 18.7842 23.1458 18.702 23.1433 18.6195L22.9583 12.6195ZM20.1085 18.0221L20.2555 13.2549H21.7445L21.8915 18.0221H20.1085ZM23.2287 21.4083C23.2239 21.2482 23.1568 21.0962 23.0418 20.9847C22.9268 20.8731 22.7728 20.8108 22.6126 20.8108H19.3874C19.2272 20.8108 19.0733 20.8732 18.9583 20.9847C18.8433 21.0962 18.7762 21.2481 18.7713 21.4082L18.5461 28.7291C18.5435 28.8116 18.5575 28.8938 18.5873 28.9708C18.6171 29.0478 18.6621 29.118 18.7195 29.1773C18.777 29.2366 18.8458 29.2837 18.9218 29.3159C18.9979 29.348 19.0796 29.3646 19.1621 29.3646H22.8378C22.9203 29.3646 23.002 29.348 23.078 29.3158C23.154 29.2836 23.2228 29.2365 23.2803 29.1772C23.3377 29.118 23.3827 29.0478 23.4125 28.9708C23.4424 28.8939 23.4564 28.8117 23.4539 28.7292L23.2287 21.4083ZM19.7978 28.1317L19.9852 22.0437H22.0148L22.202 28.1317H19.7978ZM23.5625 32.2568C23.5576 32.0967 23.4905 31.9448 23.3754 31.8333C23.2604 31.7218 23.1064 31.6594 22.9462 31.6594H19.0537C18.8935 31.6594 18.7396 31.7218 18.6246 31.8333C18.5096 31.9448 18.4425 32.0967 18.4376 32.2568L18.1646 41.118C18.1621 41.1989 18.1756 41.2795 18.2043 41.3552C18.2329 41.4309 18.2762 41.5003 18.3317 41.5592C18.3871 41.6182 18.4537 41.6657 18.5275 41.699C18.6013 41.7322 18.6809 41.7506 18.7618 41.7531C19.0994 41.7634 19.3865 41.4963 19.3969 41.156L19.6514 32.8923H22.3485L22.603 41.156C22.6055 41.2369 22.6239 41.3165 22.6571 41.3903C22.6904 41.4641 22.7379 41.5306 22.7968 41.5861C22.8558 41.6415 22.9251 41.6848 23.0008 41.7135C23.0765 41.7421 23.1571 41.7556 23.238 41.7531C23.3189 41.7506 23.3986 41.7322 23.4724 41.699C23.5462 41.6657 23.6127 41.6182 23.6682 41.5593C23.7236 41.5003 23.7669 41.431 23.7956 41.3553C23.8242 41.2795 23.8377 41.1989 23.8352 41.118L23.5625 32.2568Z" fill="#F56E41"/>
</svg>
