<svg width="42" height="38" viewBox="0 0 42 38" fill="none" xmlns="http://www.w3.org/2000/svg">
<path d="M10.15 30.2135C8.79681 30.2135 7.7 31.3103 7.7 32.6635C7.7 34.0167 8.79681 35.1135 10.15 35.1135C11.5032 35.1135 12.6 34.0167 12.6 32.6635C12.6 31.3103 11.5032 30.2135 10.15 30.2135ZM10.15 33.7135C9.56996 33.7135 9.1 33.2435 9.1 32.6635C9.1 32.0834 9.56996 31.6135 10.15 31.6135C10.73 31.6135 11.2 32.0834 11.2 32.6635C11.2 33.2435 10.73 33.7135 10.15 33.7135ZM29.05 35.1135C30.4032 35.1135 31.5 34.0167 31.5 32.6635C31.5 31.3103 30.4032 30.2135 29.05 30.2135C27.6968 30.2135 26.6 31.3103 26.6 32.6635C26.6 34.0167 27.6968 35.1135 29.05 35.1135ZM29.05 31.6135C29.63 31.6135 30.1 32.0834 30.1 32.6635C30.1 33.2435 29.63 33.7135 29.05 33.7135C28.47 33.7135 28 33.2435 28 32.6635C28 32.0834 28.47 31.6135 29.05 31.6135Z" fill="#F56E41"/>
<path d="M34.3 32.6635C34.3 31.9287 34.1458 31.2022 33.8474 30.5308C33.549 29.8595 33.1129 29.2582 32.5675 28.766C32.0221 28.2736 31.3794 27.9012 30.6809 27.6729C29.9825 27.4446 29.2439 27.3655 28.513 27.4408L27.9784 25.8309L27.6787 24.3336L28.6587 17.9635L33.2199 13.7389C33.2715 13.7279 33.3242 13.7208 33.3768 13.7061L33.9788 13.5337L34.3636 14.4006C34.4188 14.5233 34.5082 14.6275 34.621 14.7007C34.7339 14.7739 34.8655 14.8131 35 14.8135H41.3C41.583 14.8135 41.8383 14.6428 41.9466 14.3814C42.055 14.1199 41.9948 13.8188 41.7949 13.6186L39.1439 10.9669L37.016 0.560155C36.9916 0.44015 36.9361 0.32866 36.855 0.236835C36.774 0.14501 36.6703 0.0760682 36.5543 0.0369048C36.4382 -0.00236338 36.3139 -0.0104635 36.1938 0.0134153C36.0736 0.0372941 35.9619 0.092314 35.8697 0.172967L32.4298 3.18314C32.3079 3.28936 32.2267 3.43455 32.2 3.59395L31.5106 7.69727C31.4877 7.83283 31.5051 7.97214 31.5608 8.09784L31.9809 9.05045L31.2488 9.64957C31.0153 9.84343 30.8222 10.0813 30.6804 10.3496L22.75 16.1141C22.6557 16.1826 22.58 16.2735 22.5298 16.3787C22.4795 16.4838 22.4563 16.5998 22.4621 16.7162L22.8556 24.4518L22.4827 27.4135H20.3C20.1143 27.4135 19.9363 27.4872 19.805 27.6185C19.6737 27.7498 19.6 27.9278 19.6 28.1135H18.2V26.0135H21C21.1857 26.0135 21.3637 25.9397 21.495 25.8084C21.6263 25.6772 21.7 25.4991 21.7 25.3135V23.9135C21.7 23.8423 21.6891 23.7713 21.6679 23.7036L18.1679 12.5036C18.1232 12.3614 18.0343 12.2373 17.9142 12.1492C17.7941 12.061 17.649 12.0135 17.5 12.0135V10.6135H16.1V12.0135H11.9V10.6135H10.5V12.0135C10.3143 12.0135 10.1363 12.0872 10.005 12.2185C9.87375 12.3498 9.8 12.5278 9.8 12.7135V21.1135H7V16.9135C7 15.3672 5.7463 14.1135 4.2 14.1135H3.5V15.5135H4.2C4.97315 15.5135 5.6 16.1403 5.6 16.9135V21.1135H2.8V20.4135H3.5C3.68565 20.4135 3.8637 20.3397 3.99497 20.2084C4.12625 20.0772 4.2 19.8991 4.2 19.7135V17.6135C4.2 17.4278 4.12625 17.2498 3.99497 17.1185C3.8637 16.9872 3.68565 16.9135 3.5 16.9135H0.7C0.514348 16.9135 0.336301 16.9872 0.205025 17.1185C0.0737498 17.2498 0 17.4278 0 17.6135L0 19.7135C0 19.8991 0.0737498 20.0772 0.205025 20.2084C0.336301 20.3397 0.514348 20.4135 0.7 20.4135H1.4V21.1135H0.7C0.514348 21.1135 0.336301 21.1872 0.205025 21.3185C0.0737498 21.4498 0 21.6278 0 21.8135L0 33.7135C0 33.8991 0.0737498 34.0772 0.205025 34.2084C0.336301 34.3397 0.514348 34.4135 0.7 34.4135H5.2066C5.49231 35.2152 5.96813 35.9358 6.5933 36.5135H0V37.9135H42V36.5135H32.6081C33.1412 36.0238 33.5668 35.4287 33.858 34.766C34.1493 34.1033 34.2998 33.3873 34.3 32.6635ZM1.4 18.3135H2.8V19.0135H1.4V18.3135ZM32.9 32.6635C32.9 34.7897 31.1762 36.5135 29.05 36.5135C26.9237 36.5135 25.2 34.7897 25.2 32.6635C25.2 30.5372 26.9237 28.8135 29.05 28.8135C31.1754 28.8162 32.8973 30.5381 32.9 32.6635ZM33.5385 4.07179L35.8849 2.01965L37.8147 11.4536C37.8417 11.588 37.908 11.7115 38.0051 11.8084L39.6102 13.4135H35.4549L35.0086 12.4083L33.5152 9.04835L32.926 7.72255L33.5385 4.07179ZM32.1385 10.7324L32.5733 10.377L33.4004 12.239L32.9889 12.3566C32.7749 12.4197 32.5454 12.4035 32.3423 12.311C32.1393 12.2185 31.9764 12.056 31.8835 11.8532C31.7956 11.6645 31.7731 11.4519 31.8194 11.249C31.8656 11.046 31.9782 10.8643 32.1392 10.7324H32.1385ZM30.5228 12.1939C30.5488 12.279 30.5792 12.3624 30.6144 12.4441C30.8028 12.8505 31.1042 13.194 31.4826 13.4336L27.5239 17.1005C27.4079 17.2078 27.3319 17.3515 27.3086 17.5079L26.5832 22.2404C26.2299 21.9872 25.8118 21.8401 25.3779 21.8162C24.9439 21.7922 24.5121 21.8926 24.1332 22.1054L23.8748 17.0235L30.5228 12.1939ZM23.1 28.8135C23.2706 28.8135 23.4354 28.7512 23.5633 28.6383C23.6912 28.5253 23.7735 28.3696 23.7946 28.2003L24.2549 24.5127V24.5007L24.3123 24.0417C24.3396 23.8188 24.4453 23.6129 24.6107 23.4609C24.776 23.3089 24.99 23.2208 25.2144 23.2124C25.4388 23.204 25.6588 23.2758 25.8349 23.4149C26.0111 23.554 26.132 23.7514 26.1758 23.9716L26.6127 26.1492C26.6174 26.1779 26.6249 26.2059 26.6348 26.2332L27.1483 27.7734C25.1317 28.5585 23.8027 30.4995 23.8 32.6635C23.8 32.7817 23.8099 32.8973 23.8175 33.0135H21V28.8135H23.1ZM19.6 29.5135V31.6135H18.2V29.5135H19.6ZM19.6106 21.8135H14V16.2135H17.8606L19.6106 21.8135ZM10.5 22.5135C10.6857 22.5135 10.8637 22.4397 10.995 22.3084C11.1262 22.1772 11.2 21.9991 11.2 21.8135V13.4135H16.9856L17.4231 14.8135H13.3C13.1143 14.8135 12.9363 14.8872 12.805 15.0185C12.6737 15.1498 12.6 15.3278 12.6 15.5135V22.5135C12.6 22.6991 12.6737 22.8772 12.805 23.0084C12.9363 23.1397 13.1143 23.2135 13.3 23.2135H20.0481L20.3 24.0198V24.6135H7.7C7.52953 24.6134 7.36492 24.6756 7.23712 24.7885L2.5361 28.9304H1.4V22.5135H10.5ZM1.4 33.0135V30.3304H2.8C2.97047 30.3304 3.13508 30.2682 3.26288 30.1554L7.96521 26.0135H16.8V33.0135H15.3833C15.3908 32.8973 15.4007 32.7817 15.4007 32.6635C15.4007 29.764 13.0502 27.4135 10.1507 27.4135C7.25121 27.4135 4.9007 29.764 4.9007 32.6635C4.9007 32.7817 4.91059 32.8973 4.91811 33.0135H1.4ZM6.3 32.6635C6.3 30.5372 8.02375 28.8135 10.15 28.8135C12.2762 28.8135 14 30.5372 14 32.6635C14 34.7897 12.2762 36.5135 10.15 36.5135C8.02462 36.5107 6.30271 34.7887 6.3 32.6635ZM13.7081 36.5135C14.3335 35.9361 14.8091 35.2154 15.0941 34.4135H17.5C17.6857 34.4135 17.8637 34.3397 17.995 34.2084C18.1263 34.0772 18.2 33.8991 18.2 33.7135V33.0135H19.6V33.7135C19.6 33.8991 19.6737 34.0772 19.805 34.2084C19.9363 34.3397 20.1143 34.4135 20.3 34.4135H24.1059C24.3915 35.2153 24.8673 35.9359 25.4926 36.5135H13.7081Z" fill="#F56E41"/>
<path d="M2.8 23.9135H4.2V25.3135H2.8V23.9135Z" fill="#F56E41"/>
</svg>
