<svg width="42" height="40" viewBox="0 0 42 40" fill="none" xmlns="http://www.w3.org/2000/svg">
<path d="M37.263 20.214L32.6936 13.1578C32.5205 12.8893 32.2827 12.6686 32.0021 12.5159C31.7214 12.3633 31.4069 12.2837 31.0875 12.2843H10.9269C10.6079 12.2837 10.2938 12.3631 10.0134 12.5153C9.73306 12.6676 9.49537 12.8877 9.32211 13.1556L4.73854 20.2127C4.27014 20.9338 4.34249 21.8858 4.91449 22.5278L19.5704 38.9816C19.7499 39.1831 19.97 39.3443 20.2163 39.4547C20.4625 39.5652 20.7293 39.6223 20.9992 39.6224C21.2691 39.6223 21.5359 39.5652 21.7822 39.4548C22.0284 39.3443 22.2486 39.1831 22.4282 38.9817L37.0857 22.5269C37.6569 21.8856 37.7298 20.9346 37.263 20.214ZM30.1618 13.9248L26.319 19.8672L22.4739 13.9248H30.1618ZM24.8113 20.5572H17.187L20.9992 14.6658L24.8113 20.5572ZM19.5245 13.925L15.69 19.851L11.8567 13.925H19.5245ZM10.3399 14.6005L14.1929 20.5572H6.47104L10.3399 14.6005ZM6.81754 22.1979H15.0736L19.4389 36.3675L6.81754 22.1979ZM20.9992 35.8596L16.7902 22.1979H25.2081L20.9992 35.8596ZM22.5593 36.368L26.9249 22.1979H35.1816L22.5593 36.368ZM27.8266 20.5572L31.6761 14.6046L35.5307 20.5572H27.8266ZM2.48825 20.5572H0.820312C0.367336 20.5572 0 20.9245 0 21.3775C0 21.8306 0.367336 22.1979 0.820312 22.1979H2.48825C2.94123 22.1979 3.30857 21.8306 3.30857 21.3775C3.30857 20.9245 2.94123 20.5572 2.48825 20.5572ZM41.1797 20.5572H39.5117C39.0588 20.5572 38.6914 20.9245 38.6914 21.3775C38.6914 21.8306 39.0588 22.1979 39.5117 22.1979H41.1797C41.6327 22.1979 42 21.8306 42 21.3775C42 20.9245 41.6327 20.5572 41.1797 20.5572ZM35.8596 6.5326C35.5392 6.21227 35.02 6.21227 34.6995 6.5326L31.9746 9.25743C31.6543 9.57776 31.6543 10.0972 31.9746 10.4175C32.0507 10.4938 32.1412 10.5543 32.2407 10.5955C32.3403 10.6368 32.447 10.6579 32.5548 10.6578C32.6625 10.6579 32.7692 10.6368 32.8688 10.5955C32.9683 10.5543 33.0587 10.4938 33.1348 10.4175L35.8596 7.69269C36.18 7.37235 36.18 6.85301 35.8596 6.5326ZM10.0608 9.24283L7.33605 6.51792C7.0158 6.19758 6.49655 6.19758 6.17589 6.51792C5.85555 6.83825 5.85555 7.35767 6.17589 7.678L8.90072 10.4028C8.9768 10.4791 9.06722 10.5396 9.16676 10.5809C9.2663 10.6221 9.37302 10.6432 9.48076 10.6431C9.5885 10.6432 9.69521 10.6221 9.79475 10.5808C9.89429 10.5396 9.98471 10.4791 10.0608 10.4028C10.3811 10.0826 10.3811 9.56308 10.0608 9.24283ZM21.0208 0.377548C20.5679 0.377548 20.2005 0.744802 20.2005 1.19786V6.54367C20.2005 6.99673 20.5678 7.36399 21.0208 7.36399C21.4738 7.36399 21.8411 6.99673 21.8411 6.54367V1.19786C21.8411 0.744884 21.4738 0.377548 21.0208 0.377548ZM21.6004 8.73875C21.4479 8.58617 21.2363 8.4984 21.0205 8.4984C20.8048 8.4984 20.5931 8.58617 20.4405 8.73875C20.2873 8.89293 20.2009 9.1013 20.2002 9.31871C20.2002 9.53527 20.2879 9.74609 20.4405 9.89867C20.5931 10.0521 20.8048 10.139 21.0205 10.139C21.2363 10.139 21.4479 10.0521 21.6004 9.89867C21.7538 9.74609 21.8408 9.53445 21.8408 9.31871C21.8408 9.10297 21.7538 8.89141 21.6004 8.73875Z" fill="#F56E41"/>
</svg>
