<svg width="50" height="51" viewBox="0 0 50 51" fill="none" xmlns="http://www.w3.org/2000/svg">
<path d="M38.4611 27.3738C38.1422 30.4651 36.7723 33.3535 34.5802 35.5565C32.3881 37.7596 29.5066 39.144 26.4167 39.4785C26.3544 39.4778 26.2927 39.4895 26.2351 39.513C26.1774 39.5364 26.1251 39.5712 26.0811 39.6152C26.0371 39.6592 26.0023 39.7115 25.9789 39.7692C25.9554 39.8268 25.9437 39.8885 25.9444 39.9507V50.0556C25.9444 50.3061 25.8449 50.5463 25.6678 50.7234C25.4907 50.9005 25.2505 51 25 51C24.7495 51 24.5093 50.9005 24.3322 50.7234C24.1551 50.5463 24.0556 50.3061 24.0556 50.0556V46.3892C24.0466 46.2669 23.9939 46.152 23.9072 46.0653C23.8205 45.9786 23.7056 45.926 23.5833 45.917C19.3828 45.5771 15.3985 43.9133 12.2039 41.1651C9.0092 38.4168 6.76895 34.7259 5.80556 30.6236C5.76969 30.502 5.75867 30.3745 5.77312 30.2486C5.78758 30.1227 5.82723 30.001 5.88971 29.8908C5.95219 29.7805 6.03622 29.684 6.1368 29.6069C6.23738 29.5298 6.35245 29.4737 6.47515 29.442C6.59786 29.4103 6.72569 29.4036 6.85103 29.4223C6.97637 29.4411 7.09665 29.4849 7.20472 29.551C7.31279 29.6172 7.40644 29.7045 7.48007 29.8076C7.55371 29.9108 7.60583 30.0277 7.63333 30.1514C8.48981 33.8337 10.4869 37.1518 13.34 39.6325C16.193 42.1133 19.7564 43.6303 23.5222 43.9671C23.6444 44.0282 23.7611 43.9671 23.8778 43.8505C23.9395 43.8157 23.9893 43.7632 24.021 43.6999C24.0527 43.6365 24.0647 43.5652 24.0556 43.4949V39.9507C24.0563 39.8885 24.0446 39.8268 24.0211 39.7692C23.9977 39.7115 23.9629 39.6592 23.9189 39.6152C23.8749 39.5712 23.8226 39.5364 23.7649 39.513C23.7073 39.4895 23.6456 39.4778 23.5833 39.4785C20.5082 39.136 17.6386 37.7659 15.4389 35.5899C13.2397 33.3798 11.8667 30.4811 11.55 27.3794C11.532 27.2658 11.475 27.1622 11.3888 27.0861C11.3026 27.0101 11.1926 26.9665 11.0778 26.9627H0.972222C0.714373 26.9627 0.467084 26.8603 0.284757 26.678C0.10243 26.4957 0 26.2484 0 25.9906C0 25.7327 0.10243 25.4855 0.284757 25.3031C0.467084 25.1208 0.714373 25.0184 0.972222 25.0184H4.81111C4.92566 25.0136 5.03509 24.9696 5.12106 24.8938C5.20704 24.8179 5.26432 24.7148 5.28333 24.6018C5.53543 20.4078 7.09381 16.3979 9.73998 13.1342C12.3862 9.87057 15.9874 7.51681 20.0389 6.40297C20.2842 6.3564 20.5381 6.40547 20.7484 6.54011C20.9587 6.67475 21.1096 6.88476 21.17 7.12706C21.2304 7.36936 21.1958 7.62558 21.0733 7.84318C20.9507 8.06078 20.7496 8.22326 20.5111 8.29729C16.8865 9.27463 13.6575 11.3594 11.2751 14.2605C8.89271 17.1616 7.4758 20.7343 7.22222 24.4795C7.20656 24.5485 7.20718 24.6202 7.22404 24.689C7.2409 24.7577 7.27354 24.8215 7.31937 24.8754C7.36519 24.9293 7.42295 24.9718 7.48805 24.9995C7.55316 25.0272 7.62382 25.0394 7.69445 25.0351H11.0556C11.1704 25.0313 11.2804 24.9877 11.3666 24.9116C11.4528 24.8356 11.5098 24.7319 11.5278 24.6184C11.8424 21.5214 13.2117 18.6266 15.4065 16.4188C17.6012 14.2111 20.488 12.8245 23.5833 12.4915C23.6456 12.4922 23.7073 12.4805 23.7649 12.457C23.8226 12.4336 23.8749 12.3988 23.9189 12.3548C23.9629 12.3108 23.9977 12.2585 24.0211 12.2008C24.0446 12.1432 24.0563 12.0815 24.0556 12.0193V1.91438C24.0556 1.66392 24.1551 1.42371 24.3322 1.2466C24.5093 1.0695 24.7495 0.97 25 0.97C25.2505 0.97 25.4907 1.0695 25.6678 1.2466C25.8449 1.42371 25.9444 1.66392 25.9444 1.91438V13.3747C25.9508 13.5085 25.9291 13.642 25.8808 13.7669C25.8325 13.8918 25.7587 14.0051 25.664 14.0998C25.5694 14.1945 25.4559 14.2683 25.3311 14.3166C25.2062 14.3649 25.0726 14.3866 24.9389 14.3802C14.6667 14.3802 9.53333 26.9572 16.7944 34.2233C24.0556 41.4895 36.45 36.2899 36.6278 25.985C36.6263 25.8606 36.6497 25.7371 36.6966 25.6218C36.7436 25.5066 36.8131 25.4019 36.9011 25.3139C36.9891 25.2259 37.0938 25.1564 37.209 25.1095C37.3243 25.0625 37.4478 25.0391 37.5722 25.0406H49.0278C49.2856 25.0406 49.5329 25.143 49.7152 25.3254C49.8976 25.5077 50 25.7549 50 26.0128C50 26.2706 49.8976 26.5179 49.7152 26.7002C49.5329 26.8825 49.2856 26.9849 49.0278 26.9849H45.25C45.1328 26.9802 45.0183 27.0209 44.9303 27.0985C44.8423 27.1761 44.7877 27.2847 44.7778 27.4016C44.4712 31.6217 42.839 35.6371 40.1143 38.8744C37.3896 42.1117 33.7116 44.4055 29.6056 45.4282C28.3667 45.7226 27.9389 43.8338 29.1889 43.5394C32.8558 42.6277 36.1443 40.5887 38.5911 37.7095C41.0379 34.8304 42.5197 31.2562 42.8278 27.4905C42.8434 27.4215 42.8428 27.3498 42.826 27.281C42.8091 27.2123 42.7765 27.1485 42.7306 27.0946C42.6848 27.0407 42.6271 26.9982 42.562 26.9705C42.4968 26.9428 42.4262 26.9306 42.3556 26.9349H38.9333C38.8185 26.9387 38.7085 26.9823 38.6223 27.0584C38.5361 27.1344 38.4791 27.2381 38.4611 27.3516V27.3738ZM46.1111 11.6637L39.2833 18.4522C39.1165 18.6332 38.8849 18.7411 38.6389 18.7521H34.0889C33.9647 18.763 33.8448 18.803 33.7389 18.8688L25.65 27.0183C25.4681 27.1882 25.2274 27.2809 24.9785 27.277C24.7296 27.273 24.492 27.1726 24.3156 26.997C24.1393 26.8213 24.0379 26.5841 24.0329 26.3353C24.0279 26.0864 24.1197 25.8454 24.2889 25.6628L32.3778 17.5078C32.4322 17.4805 32.4778 17.4384 32.5092 17.3863C32.5407 17.3342 32.5568 17.2742 32.5556 17.2134V12.6526C32.5544 12.5212 32.5799 12.3909 32.6305 12.2696C32.6811 12.1484 32.7558 12.0386 32.85 11.947L39.6389 5.16417C39.77 5.02245 39.9407 4.9235 40.1288 4.88019C40.317 4.83689 40.5138 4.85124 40.6937 4.92138C40.8735 4.99153 41.0281 5.1142 41.1372 5.27344C41.2464 5.43267 41.305 5.62108 41.3056 5.81412V9.5361C41.3134 9.65875 41.3657 9.77435 41.4526 9.86126C41.5395 9.94817 41.6551 10.0004 41.7778 10.0083H45.4389C45.6342 10.0032 45.8265 10.057 45.9907 10.1627C46.1549 10.2685 46.2835 10.4212 46.3597 10.6011C46.4358 10.781 46.456 10.9796 46.4176 11.1712C46.3792 11.3627 46.284 11.5382 46.1444 11.6748L46.1111 11.6637ZM38.3333 16.6634L42.2889 12.7081C42.3576 12.6446 42.4062 12.5623 42.4286 12.4715C42.451 12.3807 42.4462 12.2852 42.4148 12.1971C42.3835 12.1089 42.3269 12.0319 42.2522 11.9756C42.1774 11.9193 42.0878 11.8862 41.9944 11.8804H40.3278C40.0698 11.8864 39.8197 11.7908 39.6316 11.6141C39.4435 11.4374 39.3324 11.1939 39.3222 10.936V9.31944C39.3218 9.22377 39.2932 9.13034 39.2402 9.05072C39.1871 8.97111 39.1119 8.90881 39.0237 8.87155C38.9356 8.83429 38.8385 8.82371 38.7444 8.84111C38.6503 8.85852 38.5634 8.90315 38.4944 8.96947L34.6056 12.9248C34.5017 13.0152 34.4378 13.143 34.4278 13.2803V16.3523C34.427 16.4145 34.4387 16.4763 34.4622 16.5339C34.4857 16.5915 34.5204 16.6439 34.5644 16.6879C34.6084 16.7319 34.6608 16.7666 34.7184 16.7901C34.776 16.8135 34.8378 16.8252 34.9 16.8245H38.0278C38.15 16.8245 38.2667 16.8245 38.3222 16.7023L38.3333 16.6634ZM33.0222 25.9961C33.0244 27.5845 32.5553 29.1378 31.6743 30.4594C30.7933 31.7811 29.54 32.8117 28.073 33.4208C26.606 34.0299 24.9912 34.1901 23.4331 33.8812C21.875 33.5722 20.4435 32.808 19.3199 31.6853C18.1963 30.5626 17.4311 29.1317 17.1211 27.5739C16.811 26.0161 16.9702 24.4014 17.5783 22.934C18.1864 21.4667 19.2162 20.2128 20.5373 19.3309C21.8585 18.449 23.4115 17.9789 25 17.98C25.2387 17.9983 25.4617 18.106 25.6244 18.2816C25.787 18.4572 25.8774 18.6878 25.8774 18.9271C25.8774 19.1665 25.787 19.3971 25.6244 19.5727C25.4617 19.7483 25.2387 19.856 25 19.8743C23.3792 19.8743 21.8248 20.5181 20.6788 21.6641C19.5327 22.8101 18.8889 24.3643 18.8889 25.985C18.8889 27.6057 19.5327 29.1599 20.6788 30.3059C21.8248 31.4519 23.3792 32.0957 25 32.0957C28.5444 32.0957 30.9056 29.4403 31.0778 25.985C31.0722 25.851 31.0943 25.7172 31.1427 25.5921C31.1911 25.467 31.2647 25.3532 31.3589 25.2577C31.4531 25.1622 31.566 25.0872 31.6905 25.0372C31.815 24.9873 31.9485 24.9635 32.0826 24.9673C32.2167 24.9711 32.3485 25.0025 32.47 25.0594C32.5914 25.1164 32.6999 25.1978 32.7885 25.2984C32.8772 25.3991 32.9442 25.5169 32.9853 25.6446C33.0265 25.7723 33.0409 25.9071 33.0278 26.0406L33.0222 25.9961Z" fill="#F56E41"/>
</svg>
