<?xml version="1.0" encoding="UTF-8"?>
<svg id="Layer_2" data-name="Layer 2" xmlns="http://www.w3.org/2000/svg" viewBox="0 0 407.47 62.3">
  <defs>
    <style>
      .cls-1 {
        fill: #f36f40;
      }

      .cls-2 {
        fill: #fff;
      }

      .cls-3 {
        fill: #fdbb3a;
      }

      .cls-4 {
        fill: #e66824;
      }
    </style>
  </defs>
  <g id="Layer_1-2" data-name="Layer 1">
    <g>
      <path class="cls-1" d="M391.91,0h-4.28c-1.64,0-2.96,1.33-2.96,2.96V43.06h-13.81c-.24,0-.47,.08-.67,.22,0,.63-.04,1.23-.14,1.84-.05,.31-.08,.64-.14,.95-.04,.18-.08,.35-.13,.53-.02,.18-.07,.34-.12,.52-.05,.16-.14,.23-.23,.24,.06,.11,.13,.22,.16,.29,.1,.24,.2,.51,.26,.78,.14,.64,.17,1.4,.17,2.08,.24,.23,.54,.36,.85,.36h16.4c.12,.02,.24,.04,.37,.04h4.28c1.64,0,2.96-1.33,2.96-2.96V2.96c0-1.64-1.33-2.96-2.96-2.96"/>
      <path class="cls-3" d="M344.22,50.27c.28-.71,.62-1.48,1-2.14,.08-.14,.17-.25,.26-.35-.1-.29-.22-.57-.35-.85-.38-.78-.76-1.48-.77-2.37,0-.07,0-.13,.02-.19-.26-.42-.49-.84-.56-1.32-.04,0-.08,0-.12,0-1.66,0-3-1.36-2.96-3.01,.01-.52,.02-1.06,.02-1.61,0-1.72-.08-3.32-.24-4.82-.29-3-.82-5.63-1.57-7.9-.75-2.26-1.68-4.19-2.77-5.79-1.1-1.59-2.28-2.92-3.56-3.98-1.27-1.06-2.6-1.89-3.98-2.49-1.38-.6-2.7-1.06-3.96-1.37-1.26-.31-2.43-.5-3.52-.58-1.09-.08-1.99-.13-2.71-.16h-.68l-1.5,3.66c-.75,1.82,.45,3.84,2.41,4.07,.36,.04,.7,.08,1.02,.13,1.29,.17,2.5,.52,3.64,1.03,1.14,.51,2.19,1.26,3.16,2.25,.96,.99,1.77,2.39,2.43,4.18,.66,1.8,1.13,4.07,1.43,6.83,.16,1.47,.24,3.12,.24,4.94,0,.59,0,1.16-.02,1.72-.04,1.61-1.35,2.9-2.96,2.9h-13.87c-1.64,0-2.96,1.33-2.96,2.96v1.75c0,1.64,1.33,2.96,2.96,2.96h29.97c.17,0,.33-.02,.49-.04-.02-.14-.02-.28,.03-.41"/>
      <path class="cls-4" d="M345.32,48.09c-.19-.35-.38-.7-.55-1.05-2.63,5.19-2.81,10.33,.03,13.17l.69-.69c-2.44-2.44-2.34-6.84-.17-11.43"/>
      <path class="cls-3" d="M363.22,46.58c-.23,0-.43-.16-.48-.38-.32-.27-2.13-.74-5.26-.74s-4.94,.48-5.26,.74c-.05,.22-.24,.38-.48,.38-.27,0-.49-.22-.49-.49,0-1.5,4.76-1.61,6.22-1.61s6.22,.12,6.22,1.61c0,.27-.22,.49-.49,.49"/>
      <path class="cls-3" d="M357.64,34.72c-.84-.41-1.69-.76-2.52-1.04l-.31,.92c.58,.2,1.17,.43,1.75,.69,.36-.2,.72-.39,1.08-.57"/>
      <path class="cls-3" d="M358.42,36.23c.21,.12,.43,.25,.64,.38l.5-.83s-.05-.03-.07-.04c-.36,.15-.72,.32-1.08,.5"/>
      <path class="cls-3" d="M368.08,45.42c-1.06-1.65-2.34-3.23-3.8-4.69-1.62-1.62-3.38-3.01-5.22-4.12l.51-.83c1.91,1.16,3.72,2.59,5.4,4.27,1.51,1.51,2.83,3.14,3.93,4.86l-.82,.52Z"/>
      <path class="cls-3" d="M355.15,59.26c.36-.14,.72-.3,1.08-.47-1.93-1.12-3.85-2.59-5.63-4.37-3.22-3.22-5.52-6.98-6.46-10.58-.92-3.51-.44-6.42,1.35-8.22,1.98-1.98,5.37-2.35,9.32-1.02l.31-.92c-4.31-1.45-8.07-.99-10.32,1.26-2.05,2.05-2.62,5.3-1.61,9.15,.99,3.76,3.37,7.67,6.72,11.02,1.66,1.66,3.44,3.05,5.24,4.16"/>
      <path class="cls-3" d="M371.55,50.56l-.93,.28c1.08,3.66,.63,6.83-1.22,8.68-2.42,2.42-6.76,2.34-11.31,.23-.36,.19-.71,.37-1.07,.54,2.6,1.3,5.17,1.98,7.45,1.98s4.21-.67,5.61-2.07c2.12-2.12,2.65-5.63,1.47-9.65"/>
      <path class="cls-4" d="M370.75,43.83c-.26,1-.63,2.01-1.09,3.02,.2,.36,.38,.72,.56,1.09,.64-1.28,1.14-2.58,1.48-3.86,1.01-3.85,.44-7.1-1.61-9.15l-.69,.69c1.79,1.79,2.27,4.71,1.35,8.21"/>
      <path class="cls-4" d="M368.7,48.71c-1.14,1.99-2.64,3.92-4.41,5.7-3.23,3.22-6.98,5.52-10.58,6.46-3.51,.92-6.42,.44-8.21-1.35l-.69,.69c1.39,1.39,3.32,2.09,5.62,2.09,1.1,0,2.28-.16,3.53-.49,3.76-.99,7.68-3.37,11.02-6.72,1.65-1.65,3.07-3.45,4.21-5.3-.15-.37-.31-.73-.48-1.09"/>
      <path class="cls-4" d="M346.28,46.27c1.11-1.89,2.56-3.78,4.32-5.54,3.22-3.22,6.98-5.52,10.58-6.46,3.51-.92,6.42-.44,8.21,1.35l.69-.69c-2.05-2.05-5.3-2.62-9.15-1.61-3.76,.99-7.67,3.37-11.02,6.72-1.64,1.64-3.01,3.39-4.11,5.17,.15,.35,.31,.71,.48,1.06"/>
      <path class="cls-3" d="M370.62,50.84c-.53-1.79-1.38-3.61-2.53-5.41l.82-.53c1.2,1.88,2.1,3.79,2.65,5.66l-.93,.27Z"/>
      <path class="cls-1" d="M348.07,34.34c0,1.11-.9,2-2,2s-2-.89-2-2,.9-2,2-2,2,.9,2,2"/>
      <path class="cls-1" d="M371.74,59.97c0,1.11-.9,2-2,2s-2-.89-2-2,.9-2,2-2,2,.9,2,2"/>
      <polygon class="cls-2" points="347.85 37.36 348.07 36.96 348.29 37.36 348.69 37.58 348.29 37.8 348.07 38.2 347.85 37.8 347.45 37.58 347.85 37.36"/>
      <polygon class="cls-2" points="347.49 57.5 347.93 56.7 348.37 57.5 349.17 57.94 348.37 58.38 347.93 59.18 347.49 58.38 346.69 57.94 347.49 57.5"/>
      <polygon class="cls-2" points="366.81 37.14 367.25 36.34 367.69 37.14 368.49 37.58 367.69 38.02 367.25 38.82 366.81 38.02 366.01 37.58 366.81 37.14"/>
      <polygon class="cls-2" points="366.41 56.48 366.63 56.08 366.85 56.48 367.25 56.7 366.85 56.92 366.63 57.32 366.41 56.92 366.01 56.7 366.41 56.48"/>
      <polygon class="cls-2" points="357.21 38.6 357.43 38.2 357.65 38.6 358.05 38.82 357.65 39.04 357.43 39.44 357.21 39.04 356.81 38.82 357.21 38.6"/>
      <polygon class="cls-2" points="365.79 47.71 366.01 47.31 366.23 47.71 366.63 47.93 366.23 48.15 366.01 48.55 365.79 48.15 365.39 47.93 365.79 47.71"/>
      <polygon class="cls-2" points="348.95 47.71 349.17 47.31 349.39 47.71 349.79 47.93 349.39 48.15 349.17 48.55 348.95 48.15 348.55 47.93 348.95 47.71"/>
      <path class="cls-1" d="M357.49,47.22c2.06,0,3.55-.21,4.41-.42v-1.43c0-.4-.28-.91-.62-1.12l-3.2-2.03c-.34-.22-.89-.21-1.23,0l-3.2,2.03c-.34,.21-.62,.72-.62,1.12v1.42c.86,.22,2.37,.44,4.46,.44"/>
      <path class="cls-1" d="M357.49,48.19c-.88,0-2.95-.04-4.46-.4v3.58c0,.4,.33,.73,.73,.73h1.49c.4,0,.73-.33,.73-.73v-1.79c0-.4,.33-.73,.73-.73h1.53c.4,0,.73,.33,.73,.73v1.79c0,.4,.33,.73,.73,.73h1.49c.4,0,.73-.33,.73-.73v-3.57c-1.51,.35-3.55,.39-4.41,.39"/>
      <path class="cls-3" d="M357.49,47.71c-1.46,0-6.22-.12-6.22-1.61,0-.27,.22-.49,.49-.49,.23,0,.43,.16,.48,.38,.32,.27,2.13,.74,5.26,.74s4.94-.48,5.26-.74c.05-.22,.24-.38,.48-.38,.27,0,.49,.22,.49,.49,0,1.5-4.76,1.61-6.22,1.61"/>
      <path class="cls-3" d="M291.55,11.43v27.57c0,.06,0,.12,0,.18-.12,1.95-.4,3.68-.83,5.21-.44,1.55-1.03,2.92-1.75,4.1-.72,1.18-1.58,2.19-2.57,3.04-.99,.85-2.08,1.56-3.27,2.12-1.19,.58-2.43,1.03-3.71,1.35-1.28,.32-2.59,.54-3.92,.68s-2.68,.22-4.06,.24c-.69,.01-1.45,.02-2.27,.03-1.43,.01-2.6-1.15-2.6-2.58v-1.49c0-1.42,1.15-2.57,2.57-2.58,.5,0,.97,0,1.39-.01,1.05-.01,2.05-.06,2.99-.16,.95-.09,1.82-.22,2.62-.39,.8-.16,1.51-.4,2.12-.7,.61-.28,1.16-.65,1.66-1.12,.5-.47,.94-1.06,1.31-1.78,.37-.72,.68-1.59,.93-2.61,.25-1.01,.4-2.2,.47-3.55V11.43c0-1.42,1.15-2.58,2.58-2.58h3.76c1.42,0,2.58,1.15,2.58,2.58"/>
      <path class="cls-1" d="M407.47,2.96V47.93c0,1.64-1.33,2.96-2.96,2.96h-4.28c-1.64,0-2.96-1.33-2.96-2.96V2.96C397.26,1.33,398.59,0,400.23,0h4.28c1.64,0,2.96,1.33,2.96,2.96"/>
      <path class="cls-4" d="M306.96,3.03V48c0,1.64-1.33,2.96-2.96,2.96h-4.28c-1.64,0-2.96-1.33-2.96-2.96V3.03c0-1.64,1.33-2.96,2.96-2.96h4.28c1.64,0,2.96,1.33,2.96,2.96"/>
    </g>
    <g>
      <path class="cls-2" d="M10.16,16.51c0-.73,.34-1.1,1.03-1.1s1.01,.37,1.01,1.1l-.02,7.61c-.02,.69-.35,1.03-1.01,1.03H3.62c-2.06,0-3.08-1.1-3.08-3.31v-3.08c0-.77,.34-1.16,1.01-1.16,.67,.01,1.01,.39,1.03,1.12v3.15c0,.72,.35,1.08,1.06,1.08h6.51v-6.44Zm-6.06,0c0-.19,.04-.38,.13-.56,.09-.17,.22-.31,.37-.4,.16-.09,.33-.14,.51-.14,.16,0,.33,.05,.49,.14,.16,.09,.28,.23,.37,.4,.09,.18,.13,.37,.13,.56s-.04,.37-.13,.53c-.09,.19-.22,.32-.37,.41-.16,.09-.32,.14-.49,.14-.18,0-.35-.05-.51-.14-.15-.09-.27-.22-.37-.41-.09-.17-.13-.35-.13-.53h0Zm2.55,0c0-.19,.05-.38,.15-.56,.09-.17,.21-.31,.37-.4,.16-.09,.33-.14,.51-.14,.16,0,.33,.05,.49,.14,.16,.09,.28,.23,.37,.4,.09,.18,.13,.37,.13,.56s-.04,.37-.13,.53c-.09,.19-.22,.32-.37,.41-.16,.09-.32,.14-.49,.14-.18,0-.35-.05-.51-.14-.16-.09-.28-.22-.37-.41-.1-.17-.15-.35-.15-.53h0Zm8.04-3.78c.67,.02,1.01,.39,1.01,1.11v4.57c0,.75-.33,1.12-1,1.12s-1.04-.37-1.04-1.12v-3.46c-.68,0-1.02-.36-1.02-1.07,0-.76,.34-1.14,1.02-1.16h1.03Zm2.06,12.43c-2.06,0-3.08-1.1-3.08-3.31v-.27c0-.77,.34-1.15,1.01-1.15s1,.37,1.01,1.12v.33c0,.72,.36,1.08,1.08,1.08h2.06V13.86c0-.75,.35-1.12,1.04-1.12s1,.37,1,1.12v10.19c0,.72-.34,1.1-1.01,1.11h-3.1Zm10.61-9.59c2.04,0,3.07,1.11,3.07,3.33v5.82c0,2.26-1.02,3.39-3.06,3.39h-.78c-.68,0-1.02-.37-1.02-1.1v-.02c0-.73,.34-1.1,1.02-1.1h.77c.56,0,.89-.25,.99-.75h-2.37c-2.03,0-3.05-1.1-3.05-3.31v-2.94c0-2.22,1.03-3.33,3.08-3.33h1.35Zm1.04,3.29c0-.71-.35-1.07-1.04-1.07h-1.37c-.67,0-1,.37-1,1.11v2.9c0,.76,.33,1.14,1,1.14h2.41v-4.09Zm7.87,4.09c.34,0,.5,.37,.49,1.11,0,.73-.17,1.1-.52,1.1h-.48c-2.06,0-3.08-1.1-3.08-3.31v-7.95c0-.78,.34-1.17,1.01-1.17,.66,0,1,.39,1.01,1.14v8.01c0,.72,.36,1.08,1.08,1.08h.49Zm-.19,0h2.46v2.21h-2.46v-2.21Zm2.03,0h2.46v2.21h-2.46v-2.21Zm12.88,0c.33,0,.5,.37,.5,1.11-.01,.73-.18,1.1-.52,1.1h-10.6c-.34,0-.51-.37-.52-1.1-.01-.74,.15-1.11,.49-1.11h1.68c-.07-.32-.1-.69-.1-1.1v-2.95c0-2.22,1.03-3.32,3.08-3.32h1.35c2.04,0,3.07,1.11,3.07,3.32v4.05h1.57Zm-6.09-8.26c-.17,.09-.33,.14-.49,.14-.18,0-.35-.05-.51-.14-.16-.1-.29-.23-.37-.4-.1-.18-.15-.37-.15-.55s.05-.36,.15-.54c.09-.19,.22-.32,.37-.41,.16-.09,.33-.14,.51-.14,.16,0,.33,.05,.49,.14,.15,.09,.27,.22,.37,.41,.09,.18,.13,.36,.13,.54,0,.19-.04,.38-.13,.55-.09,.17-.21,.3-.37,.4h0Zm-.92,7.13c0,.76,.33,1.13,1,1.13h2.41v-4.08c0-.71-.35-1.07-1.04-1.07h-1.37c-.67,0-1,.37-1,1.1v2.92Zm3.49-7.13c-.17,.09-.34,.14-.51,.14s-.34-.05-.49-.14c-.16-.1-.29-.23-.37-.4-.1-.18-.15-.37-.15-.55s.05-.36,.15-.54c.09-.19,.22-.32,.37-.41,.16-.09,.32-.14,.49-.14s.34,.05,.49,.14c.16,.09,.29,.23,.39,.41,.09,.18,.13,.36,.13,.54,0,.19-.04,.38-.13,.55-.09,.17-.21,.3-.37,.4h0Zm3.3,8.26h2.46v2.21h-2.46v-2.21Zm2.03,0h2.46v2.21h-2.46v-2.21Zm12.87,0c.34,0,.51,.37,.51,1.1,0,.74-.16,1.1-.49,1.1h-10.65c-.33,0-.5-.37-.49-1.1,0-.74,.17-1.1,.5-1.1h1.69c-.04-.18-.07-.37-.09-.56-.02-.19-.03-.4-.03-.62v-2.88c0-2.21,1.03-3.31,3.08-3.31h1.36c2.04,0,3.06,1.11,3.06,3.32v4.05h1.56Zm-7.01-1.14c0,.76,.34,1.14,1.03,1.14h2.38v-4.06c0-.73-.34-1.1-1.01-1.1h-1.37c-.69,0-1.03,.36-1.03,1.07v2.95Zm12.18,1.14c.33,0,.49,.37,.49,1.11-.01,.73-.18,1.1-.52,1.1h-1.55c-.67-.02-1.01-.38-1-1.1-.05,.73-.39,1.1-1.05,1.1h-1.56c-.33,0-.5-.37-.5-1.1-.01-.74,.15-1.11,.49-1.11h1.57V13.83c0-.73,.33-1.1,.99-1.1s1.04,.37,1.05,1.12v9.09h1.57Zm1.54-9.13c0-.72,.34-1.09,1.02-1.09s1.01,.37,1.01,1.11v10.2c0,.74-.34,1.11-1.01,1.11h-2.57c-.33,0-.51-.37-.52-1.11-.01-.73,.15-1.1,.49-1.1h1.58V13.82h0Zm19.23,1.75c2.04,0,3.06,1.13,3.06,3.4v5.08c0,.74-.34,1.11-1.03,1.11s-1.02-.37-1.02-1.12v-5.13c0-.75-.34-1.12-1.03-1.12h-.65v6.24c0,.37-.09,.66-.27,.85-.18,.19-.47,.29-.88,.29h-6.92c-2.06,0-3.08-1.1-3.08-3.31v-.41c-.01-.77,.33-1.15,1.01-1.15,.66,.01,1,.39,1.01,1.12v.47c0,.72,.36,1.08,1.07,1.08h6.03v-6.29c0-.73,.34-1.1,1.02-1.1h1.68Zm-10.31,1.08c-.17,.09-.33,.14-.5,.14-.18,0-.35-.05-.51-.14-.16-.1-.28-.24-.37-.41-.09-.17-.13-.36-.13-.54,0-.17,.04-.35,.13-.53,.09-.17,.22-.31,.37-.41,.16-.09,.33-.14,.51-.14,.17,0,.33,.05,.5,.14,.16,.09,.28,.23,.36,.41,.1,.17,.15,.35,.15,.53s-.05,.37-.15,.54c-.09,.17-.21,.31-.36,.41h0Zm0,2.78c-.17,.09-.33,.14-.5,.14-.18,0-.35-.05-.51-.14-.16-.1-.28-.24-.37-.41-.09-.17-.13-.36-.13-.54,0-.17,.04-.35,.13-.53,.09-.19,.22-.32,.37-.41,.16-.1,.33-.15,.51-.15s.34,.05,.5,.15c.16,.09,.28,.22,.36,.39,.1,.18,.15,.37,.15,.55s-.05,.36-.15,.54c-.09,.17-.21,.31-.36,.41h0Zm16.37-2.72c0-.74,.34-1.11,1.01-1.11s1.03,.37,1.03,1.1l-.02,8.47c-.12,1.99-1.13,2.98-3.04,2.98l-.79-.02c-.67,0-1.01-.36-1.01-1.08v-.02c0-.73,.34-1.1,1.01-1.1h.78c.69,0,1.04-.38,1.04-1.13v-8.09h0Zm7.46,6.25c.34,0,.5,.37,.49,1.11,0,.73-.17,1.1-.52,1.1h-.48c-2.06,0-3.08-1.1-3.08-3.31v-7.95c0-.78,.34-1.17,1.01-1.17,.66,0,1,.39,1.01,1.14v8.01c0,.72,.36,1.08,1.08,1.08h.49Zm-.19,0h2.46v2.21h-2.46v-2.21Zm2.03,0h2.46v2.21h-2.46v-2.21Zm12.87,0c.34,0,.51,.37,.51,1.1,0,.74-.16,1.1-.49,1.1h-10.65c-.33,0-.5-.37-.49-1.1,0-.74,.17-1.1,.5-1.1h1.69c-.04-.18-.07-.37-.09-.56-.02-.19-.03-.4-.03-.62v-2.88c0-2.21,1.03-3.31,3.08-3.31h1.36c2.04,0,3.06,1.11,3.06,3.32v4.05h1.56Zm-7.01-1.14c0,.76,.34,1.14,1.03,1.14h2.38v-4.06c0-.73-.34-1.1-1.01-1.1h-1.37c-.69,0-1.03,.36-1.03,1.07v2.95Zm6.79,1.14h2.46v2.21h-2.46v-2.21Zm2.03,0h2.46v2.21h-2.46v-2.21Zm14.38,0c.33,0,.5,.36,.5,1.09-.01,.75-.18,1.12-.52,1.12h-5.05c-.59,0-.93-.28-1.01-.85-.05,.57-.33,.85-.84,.85h-5.25c-.33,0-.51-.37-.52-1.11,0-.73,.16-1.1,.49-1.1h3.05l-1.74-2.31c-.22-.27-.31-.64-.26-1.1v-.65c0-2.21,1.04-3.31,3.12-3.31h3.9c2.06,0,3.08,1.1,3.08,3.31v.8c0,.4-.09,.72-.28,.96l-1.74,2.31h3.05Zm-8.08-5.18c-.69,0-1.04,.38-1.04,1.14v.59l2.72,3.57c.14,.19,.24,.37,.29,.56,.05-.18,.15-.37,.3-.56l2.75-3.59v-.63c0-.72-.36-1.09-1.08-1.09h-3.94Zm7.8,5.18h2.46v2.21h-2.46v-2.21Zm2.03,0h2.46v2.21h-2.46v-2.21Zm12.87,0c.34,0,.51,.37,.51,1.1,0,.74-.16,1.1-.49,1.1h-10.65c-.33,0-.5-.37-.49-1.1,0-.74,.17-1.1,.5-1.1h1.69c-.04-.18-.07-.37-.09-.56-.02-.19-.03-.4-.03-.62v-2.88c0-2.21,1.03-3.31,3.08-3.31h1.36c2.04,0,3.06,1.11,3.06,3.32v4.05h1.56Zm-7.01-1.14c0,.76,.34,1.14,1.03,1.14h2.38v-4.06c0-.73-.34-1.1-1.01-1.1h-1.37c-.69,0-1.03,.36-1.03,1.07v2.95Zm8.57-7.99c0-.72,.34-1.09,1.02-1.09s1.01,.37,1.01,1.11v10.2c0,.74-.34,1.11-1.01,1.11h-2.57c-.33,0-.51-.37-.52-1.11-.01-.73,.15-1.1,.49-1.1h1.58V13.82h0Zm5.4-1.09c.67,.02,1.01,.39,1.01,1.1v10.2c0,.75-.33,1.12-1,1.12s-1.04-.37-1.04-1.12V14.96c-.69,0-1.03-.36-1.02-1.07,0-.76,.34-1.14,1.02-1.16h1.03Zm8.17,3.97c0-.74,.34-1.11,1.01-1.11s1.03,.37,1.03,1.1l-.02,8.47c-.12,1.99-1.13,2.98-3.04,2.98l-.79-.02c-.67,0-1.01-.36-1.01-1.08v-.02c0-.73,.34-1.1,1.01-1.1h.78c.69,0,1.04-.38,1.04-1.13v-8.09h0Zm4.98-3.97c.67,.02,1.01,.39,1.01,1.1v10.2c0,.75-.33,1.12-1,1.12s-1.04-.37-1.04-1.12V14.96c-.69,0-1.03-.36-1.02-1.07,0-.76,.34-1.14,1.02-1.16h1.03Zm14.32,10.22c.34,0,.5,.37,.49,1.11,0,.73-.17,1.1-.52,1.1h-8.49c-2.04,0-3.06-1.13-3.06-3.39v-.18c0-.74,.34-1.11,1.03-1.11s1.01,.37,1.01,1.12v.22c0,.76,.35,1.13,1.05,1.13h4.24v-4.03c0-.75-.35-1.12-1.04-1.12l-1.79-.02c-.69,0-1.03-.37-1.03-1.1s.34-1.1,1.03-1.1h1.8c2.04,0,3.06,1.12,3.06,3.39v3.97h2.22Zm-.76,0h2.46v2.21h-2.46v-2.21Zm2.03,0h2.46v2.21h-2.46v-2.21Zm12.87,0c.34,0,.51,.37,.51,1.1,0,.74-.16,1.1-.49,1.1h-10.65c-.33,0-.5-.37-.49-1.1,0-.74,.17-1.1,.5-1.1h1.69c-.04-.18-.07-.37-.09-.56-.02-.19-.03-.4-.03-.62v-2.88c0-2.21,1.03-3.31,3.08-3.31h1.36c2.04,0,3.06,1.11,3.06,3.32v4.05h1.56Zm-7.01-1.14c0,.76,.34,1.14,1.03,1.14h2.38v-4.06c0-.73-.34-1.1-1.01-1.1h-1.37c-.69,0-1.03,.36-1.03,1.07v2.95Zm8.57-7.99c0-.72,.34-1.09,1.02-1.09s1.01,.37,1.01,1.11v10.2c0,.74-.34,1.11-1.01,1.11h-2.57c-.33,0-.51-.37-.52-1.11-.01-.73,.15-1.1,.49-1.1h1.58V13.82h0Zm5.4-1.09c.67,.02,1.01,.39,1.01,1.1v10.2c0,.75-.33,1.12-1,1.12s-1.04-.37-1.04-1.12V14.96c-.69,0-1.03-.36-1.02-1.07,0-.76,.34-1.14,1.02-1.16h1.03Zm14.14,10.21h.51c.31,0,.76,0,1.35,0,.33,0,.51,.37,.52,1.11,0,.73-.16,1.1-.49,1.1h-6.32c-2.05,0-3.08-1.11-3.08-3.33v-2.93c0-2.21,1.01-3.31,3.03-3.31h1.62c.31,.05,.58,.23,.81,.56,0-.74,.34-1.11,1.01-1.11s1.03,.37,1.03,1.11v6.8Zm-4.54-8.25c-.17,.09-.34,.14-.51,.14s-.34-.05-.49-.14c-.16-.1-.29-.23-.37-.4-.1-.18-.15-.37-.15-.55s.05-.36,.15-.54c.09-.19,.22-.32,.37-.41,.16-.09,.32-.14,.49-.14s.34,.05,.49,.14c.17,.09,.29,.23,.38,.41,.09,.17,.14,.36,.14,.54s-.04,.38-.13,.55c-.09,.17-.21,.3-.37,.4h0Zm2.5,8.25v-5.16l-.81,.02h-1.61c-.67,0-1.01,.37-1.01,1.12v2.92c0,.73,.34,1.1,1.01,1.1h2.42Zm.07-8.25c-.17,.09-.34,.14-.51,.14s-.34-.05-.5-.14c-.16-.11-.28-.24-.36-.4-.1-.18-.15-.37-.15-.55s.05-.36,.15-.54c.09-.19,.22-.32,.37-.41,.16-.09,.32-.14,.49-.14s.34,.05,.49,.14c.17,.09,.29,.23,.38,.41,.09,.17,.14,.36,.14,.54s-.04,.38-.13,.55c-.09,.17-.22,.3-.37,.4h0Zm12.27,9.38c0,.72-.34,1.09-1.02,1.09h-7.94c-.17,0-.29-.09-.38-.26-.08-.17-.13-.44-.13-.81,0-.37,.03-.66,.12-.85,.08-.19,.21-.29,.38-.29h6.94v-3.99c0-.76-.35-1.13-1.04-1.13l-3.31-.02c-.68,0-1.02-.36-1.02-1.08,0-.19,.02-.37,.07-.52,.05-.15,.13-.3,.25-.45l3.14-4.31c.22-.3,.45-.46,.7-.47,.25-.01,.51,.11,.76,.36,.5,.47,.52,.99,.06,1.55l-1.97,2.72h1.32c2.04,0,3.06,1.13,3.06,3.39v5.07Zm4.86-1.13c.74,0,1.4,.02,1.98,.03,.33,0,.51,.37,.52,1.1,0,.73-.16,1.1-.49,1.1h-2.02c-.12,1.99-1.13,2.98-3.04,2.98l-.78-.02c-.69,0-1.03-.36-1.03-1.08l.02-.02h-.02c0-.73,.34-1.1,1.03-1.1h.76c.69,0,1.04-.38,1.04-1.13v-8.08c0-.75,.34-1.12,1.03-1.12s1.01,.37,1.01,1.11v6.24h0Zm1.25,0h2.46v2.21h-2.46v-2.21Zm2.03,0h2.46v2.21h-2.46v-2.21Zm13.33-6.25c0-.75,.34-1.12,1.02-1.12s1.01,.37,1.01,1.1v5.08c0,2.26-1.02,3.39-3.06,3.39h-1.62c-.67-.02-1.01-.38-1-1.1-.05,.72-.39,1.09-1.05,1.1h-2.4c-.67-.02-1.01-.38-.99-1.1-.04,.72-.39,1.08-1.05,1.1h-2.46c-.33,0-.51-.37-.52-1.11,0-.73,.17-1.1,.51-1.1h2.47v-6.27c0-.73,.33-1.1,1-1.1s1.03,.37,1.05,1.12v6.24s2.4,0,2.4,0v-6.26c0-.73,.33-1.1,.99-1.1s1.04,.37,1.05,1.12l-.02,6.24h1.62c.69,0,1.04-.37,1.04-1.12v-5.11Zm-5.46-3.92c.16-.09,.32-.14,.49-.14s.34,.05,.49,.14c.17,.09,.29,.23,.38,.41,.09,.16,.14,.34,.14,.54,0,.19-.04,.37-.13,.53-.1,.19-.22,.32-.37,.41-.17,.09-.34,.14-.51,.14s-.34-.05-.5-.14c-.16-.09-.28-.23-.36-.41-.1-.17-.15-.35-.15-.53s.05-.37,.15-.54c.09-.19,.22-.32,.37-.41h0Zm2.28-.35c-.17,.09-.33,.14-.5,.14-.18,0-.35-.05-.51-.14-.15-.09-.27-.22-.37-.41-.09-.17-.13-.35-.13-.53s.04-.38,.13-.56c.09-.17,.22-.31,.39-.4,.16-.09,.32-.14,.49-.14,.16,0,.33,.05,.49,.14,.16,.09,.29,.23,.37,.4,.1,.18,.15,.37,.15,.56,0,.18-.05,.36-.15,.53-.09,.18-.21,.32-.36,.41h0Zm.78,.21c.16,0,.33,.05,.49,.14,.17,.09,.29,.23,.38,.41,.09,.16,.14,.34,.14,.54s-.05,.37-.14,.53c-.09,.18-.21,.32-.36,.41-.17,.09-.34,.14-.51,.14s-.34-.05-.5-.14c-.16-.09-.28-.23-.38-.41-.09-.17-.13-.35-.13-.53s.04-.37,.13-.54c.1-.18,.22-.32,.38-.41,.16-.09,.33-.14,.5-.14h0Z"/>
      <g>
        <path class="cls-2" d="M0,38.75c0-.35,.07-.67,.2-.96,.13-.29,.31-.52,.54-.69,.23-.17,.48-.25,.75-.25H7.42c.27,0,.52,.08,.75,.25,.23,.17,.41,.4,.54,.69,.13,.29,.2,.61,.2,.96v9.53h-1v-4.18H1v4.18H0v-9.53Zm7.9,4.07v-4.07c0-.17-.05-.31-.14-.44-.1-.12-.21-.18-.34-.18H1.48c-.13,0-.25,.06-.34,.18-.09,.12-.14,.27-.14,.44v4.07H7.9Z"/>
        <path class="cls-2" d="M11.01,48.02c-.23-.17-.41-.41-.54-.7-.14-.29-.2-.61-.2-.96v-10.31h1.01v10.31c0,.17,.05,.32,.14,.44,.09,.12,.21,.18,.34,.18h1.21v1.3h-1.21c-.27,0-.52-.09-.75-.26Z"/>
        <path class="cls-2" d="M13.99,48.28v-9.21h9.47c.28,0,.53,.09,.76,.26,.23,.17,.41,.41,.54,.7,.13,.29,.2,.61,.2,.96v7.29h-1v-7.29c0-.17-.05-.31-.15-.44-.1-.12-.21-.18-.35-.18h-2.98c-.13,0-.25,.06-.34,.18-.09,.12-.14,.27-.14,.44v7.29h-1.03v-7.29c0-.17-.05-.31-.14-.44-.09-.12-.21-.18-.34-.18h-2.99c-.13,0-.25,.06-.34,.18-.1,.12-.14,.27-.14,.44v7.29h-1.03Z"/>
        <path class="cls-2" d="M27.3,48.28c-.27,0-.52-.09-.75-.26s-.41-.41-.54-.7c-.14-.29-.2-.61-.2-.96v-3.34h6.28v-2.03c0-.17-.05-.31-.14-.44-.09-.12-.21-.18-.34-.18h-5.8v-1.3h5.8c.28,0,.53,.09,.76,.26,.23,.17,.41,.41,.54,.7,.14,.29,.2,.61,.2,.96v7.29h-5.81Zm0-1.3h4.78v-2.65h-5.26v2.03c0,.17,.05,.32,.14,.44,.09,.12,.21,.18,.34,.18Z"/>
        <path class="cls-2" d="M34.77,48.02c-.23-.17-.41-.41-.54-.7-.14-.29-.2-.61-.2-.96v-5.37c0-.35,.07-.67,.2-.96,.14-.29,.32-.52,.54-.7,.23-.17,.48-.26,.76-.26h4.78v-3.02h1.01v12.23h-5.8c-.28,0-.53-.09-.76-.26Zm.76-1.04h4.3c.13,0,.25-.06,.34-.18,.09-.12,.14-.27,.14-.44v-5.37c0-.17-.05-.31-.14-.44-.09-.12-.21-.18-.34-.18h-4.3c-.13,0-.25,.06-.34,.18-.09,.12-.14,.27-.14,.44v5.37c0,.17,.05,.32,.14,.44,.09,.12,.21,.18,.34,.18Z"/>
        <path class="cls-2" d="M44.12,48.28c-.27,0-.52-.09-.75-.26s-.41-.41-.54-.7c-.14-.29-.2-.61-.2-.96v-3.34h6.28v-2.03c0-.17-.05-.31-.14-.44-.09-.12-.21-.18-.34-.18h-5.8v-1.3h5.8c.28,0,.53,.09,.76,.26,.23,.17,.41,.41,.54,.7,.14,.29,.2,.61,.2,.96v7.29h-5.81Zm0-1.3h4.78v-2.65h-5.26v2.03c0,.17,.05,.32,.14,.44,.09,.12,.21,.18,.34,.18Z"/>
        <path class="cls-2" d="M50.97,48.28v-7.29c0-.35,.07-.67,.2-.96,.14-.29,.32-.52,.54-.7,.23-.17,.48-.26,.75-.26h4.03v1.3h-4.03c-.13,0-.25,.06-.34,.18-.09,.12-.14,.27-.14,.44v7.29h-1.01Z"/>
        <path class="cls-2" d="M62.15,48.28c-.27,0-.52-.09-.75-.26s-.41-.41-.54-.7c-.14-.29-.2-.61-.2-.96v-3.34h6.28v-2.03c0-.17-.05-.31-.14-.44-.09-.12-.21-.18-.34-.18h-5.8v-1.3h5.8c.28,0,.53,.09,.76,.26,.23,.17,.41,.41,.54,.7,.14,.29,.2,.61,.2,.96v7.29h-5.81Zm0-1.3h4.78v-2.65h-5.26v2.03c0,.17,.05,.32,.14,.44,.09,.12,.21,.18,.34,.18Z"/>
        <path class="cls-2" d="M69.72,48.02c-.23-.17-.41-.41-.54-.7-.14-.29-.2-.61-.2-.96v-10.31h1.01v10.31c0,.17,.05,.32,.14,.44,.09,.12,.21,.18,.34,.18h1.21v1.3h-1.21c-.27,0-.52-.09-.75-.26Z"/>
        <path class="cls-2" d="M72.71,48.28v-9.21h9.47c.28,0,.53,.09,.76,.26,.23,.17,.41,.41,.54,.7,.13,.29,.2,.61,.2,.96v7.29h-1v-7.29c0-.17-.05-.31-.15-.44-.1-.12-.21-.18-.35-.18h-2.98c-.13,0-.25,.06-.34,.18-.09,.12-.14,.27-.14,.44v7.29h-1.03v-7.29c0-.17-.05-.31-.14-.44-.09-.12-.21-.18-.34-.18h-2.99c-.13,0-.25,.06-.34,.18-.1,.12-.14,.27-.14,.44v7.29h-1.03Z"/>
        <path class="cls-2" d="M85.16,48.02c-.23-.17-.41-.41-.54-.7-.14-.29-.2-.61-.2-.96v-5.37c0-.35,.07-.67,.2-.96,.14-.29,.32-.52,.54-.7,.23-.17,.48-.26,.75-.26h4.3c.28,0,.53,.09,.76,.26,.23,.17,.41,.41,.54,.7,.14,.29,.2,.61,.2,.96v3.34h-6.29v2.03c0,.17,.05,.32,.14,.44,.09,.12,.21,.18,.34,.18h5.81v1.3h-5.81c-.27,0-.52-.09-.75-.26Zm.27-5h5.27v-2.03c0-.17-.05-.31-.14-.44-.1-.12-.21-.18-.34-.18h-4.3c-.13,0-.25,.06-.34,.18-.09,.12-.14,.27-.14,.44v2.03Z"/>
        <path class="cls-2" d="M92.97,37.35v-1.3h1.01v1.3h-1.01Zm0,10.93v-9.21h1.01v9.21h-1.01Z"/>
        <path class="cls-2" d="M95.57,48.28v-9.21h9.47c.28,0,.53,.09,.76,.26,.23,.17,.41,.41,.54,.7,.13,.29,.2,.61,.2,.96v7.29h-1v-7.29c0-.17-.05-.31-.15-.44-.1-.12-.21-.18-.35-.18h-2.98c-.13,0-.25,.06-.34,.18-.09,.12-.14,.27-.14,.44v7.29h-1.03v-7.29c0-.17-.05-.31-.14-.44-.09-.12-.21-.18-.34-.18h-2.99c-.13,0-.25,.06-.34,.18-.1,.12-.14,.27-.14,.44v7.29h-1.03Z"/>
        <path class="cls-2" d="M108.88,48.28c-.27,0-.52-.09-.75-.26s-.41-.41-.54-.7c-.14-.29-.2-.61-.2-.96v-3.34h6.28v-2.03c0-.17-.05-.31-.14-.44-.09-.12-.21-.18-.34-.18h-5.8v-1.3h5.8c.28,0,.53,.09,.76,.26,.23,.17,.41,.41,.54,.7,.14,.29,.2,.61,.2,.96v7.29h-5.81Zm0-1.3h4.78v-2.65h-5.26v2.03c0,.17,.05,.32,.14,.44,.09,.12,.21,.18,.34,.18Z"/>
        <path class="cls-2" d="M115.73,48.28v-7.29c0-.35,.07-.67,.2-.96,.14-.29,.32-.52,.54-.7,.23-.17,.48-.26,.75-.26h4.03v1.3h-4.03c-.13,0-.25,.06-.34,.18-.09,.12-.14,.27-.14,.44v7.29h-1.01Z"/>
        <path class="cls-2" d="M122.23,37.35v-1.3h1.01v1.3h-1.01Zm0,10.93v-9.21h1.01v9.21h-1.01Z"/>
        <path class="cls-2" d="M128.17,48.28v-10.31c0-.36,.07-.69,.2-.98,.13-.29,.31-.52,.54-.69s.48-.25,.76-.25h2.62v1.3h-2.62c-.13,0-.25,.06-.34,.18-.09,.12-.14,.27-.14,.44v1.1h3.1v1.3h-3.1v7.91h-1.01Z"/>
        <path class="cls-2" d="M134.01,48.02c-.23-.17-.41-.41-.54-.7-.14-.29-.2-.61-.2-.96v-5.37c0-.35,.07-.67,.2-.96,.14-.29,.32-.52,.54-.7,.23-.17,.48-.26,.75-.26h4.3c.28,0,.53,.09,.76,.26,.23,.17,.41,.41,.54,.7,.14,.29,.2,.61,.2,.96v5.37c0,.35-.07,.67-.2,.96s-.32,.52-.54,.7-.48,.26-.76,.26h-4.3c-.27,0-.52-.09-.75-.26Zm.75-1.04h4.3c.13,0,.24-.06,.34-.18,.09-.12,.14-.27,.14-.44v-5.37c0-.17-.05-.31-.14-.44-.1-.12-.21-.18-.34-.18h-4.3c-.13,0-.25,.06-.34,.18-.09,.12-.14,.27-.14,.44v5.37c0,.17,.05,.32,.14,.44,.09,.12,.21,.18,.34,.18Z"/>
        <path class="cls-2" d="M141.57,48.28v-7.29c0-.35,.07-.67,.2-.96,.14-.29,.32-.52,.54-.7,.23-.17,.48-.26,.75-.26h4.03v1.3h-4.03c-.13,0-.25,.06-.34,.18-.09,.12-.14,.27-.14,.44v7.29h-1.01Z"/>
        <path class="cls-2" d="M152.79,48.28c-.27,0-.52-.08-.75-.25-.23-.17-.41-.4-.54-.69-.13-.29-.2-.61-.2-.96v-7.62c0-.35,.07-.67,.2-.96,.13-.29,.31-.52,.54-.69,.23-.17,.48-.25,.75-.25h7.39v1.29h-7.39c-.13,0-.25,.06-.34,.18-.1,.12-.14,.27-.14,.44v7.62c0,.17,.05,.32,.14,.44,.09,.12,.21,.18,.34,.18h7.39v1.29h-7.39Z"/>
        <path class="cls-2" d="M162.15,48.02c-.23-.17-.41-.41-.54-.7-.14-.29-.2-.61-.2-.96v-5.37c0-.35,.07-.67,.2-.96,.14-.29,.32-.52,.54-.7,.23-.17,.48-.26,.75-.26h4.3c.28,0,.53,.09,.76,.26,.23,.17,.41,.41,.54,.7,.14,.29,.2,.61,.2,.96v5.37c0,.35-.07,.67-.2,.96s-.32,.52-.54,.7-.48,.26-.76,.26h-4.3c-.27,0-.52-.09-.75-.26Zm.75-1.04h4.3c.13,0,.24-.06,.34-.18,.09-.12,.14-.27,.14-.44v-5.37c0-.17-.05-.31-.14-.44-.1-.12-.21-.18-.34-.18h-4.3c-.13,0-.25,.06-.34,.18-.09,.12-.14,.27-.14,.44v5.37c0,.17,.05,.32,.14,.44,.09,.12,.21,.18,.34,.18Z"/>
        <path class="cls-2" d="M169.7,48.28v-9.21h5.81c.27,0,.52,.09,.75,.26,.23,.17,.41,.41,.54,.7,.14,.29,.2,.61,.2,.96v7.29h-1.01v-7.29c0-.17-.05-.31-.14-.44-.09-.12-.21-.18-.34-.18h-4.3c-.13,0-.25,.06-.35,.18-.1,.12-.15,.27-.15,.44v7.29h-1.01Z"/>
        <path class="cls-2" d="M179.02,48.02c-.23-.17-.41-.41-.54-.7s-.2-.61-.2-.96v-10.31h1.01v3.02h3.1v1.3h-3.1v5.99c0,.17,.05,.32,.14,.44,.09,.12,.21,.18,.34,.18h2.62v1.3h-2.62c-.28,0-.53-.09-.76-.26Z"/>
        <path class="cls-2" d="M183.43,48.28v-7.29c0-.35,.07-.67,.2-.96,.14-.29,.32-.52,.54-.7,.23-.17,.48-.26,.75-.26h4.03v1.3h-4.03c-.13,0-.25,.06-.34,.18-.09,.12-.14,.27-.14,.44v7.29h-1.01Z"/>
        <path class="cls-2" d="M191.42,48.28c-.27,0-.52-.09-.75-.26s-.41-.41-.54-.7c-.14-.29-.2-.61-.2-.96v-3.34h6.28v-2.03c0-.17-.05-.31-.14-.44-.09-.12-.21-.18-.34-.18h-5.8v-1.3h5.8c.28,0,.53,.09,.76,.26,.23,.17,.41,.41,.54,.7,.14,.29,.2,.61,.2,.96v7.29h-5.81Zm0-1.3h4.78v-2.65h-5.26v2.03c0,.17,.05,.32,.14,.44,.09,.12,.21,.18,.34,.18Z"/>
        <path class="cls-2" d="M198.92,48.02c-.23-.17-.41-.41-.54-.7-.14-.29-.2-.61-.2-.96v-5.37c0-.35,.07-.67,.2-.96,.14-.29,.32-.52,.54-.7,.23-.17,.48-.26,.75-.26h5.78v1.3h-5.78c-.13,0-.25,.06-.34,.18-.09,.12-.14,.27-.14,.44v5.37c0,.17,.05,.32,.14,.44,.09,.12,.21,.18,.34,.18h5.81v1.3h-5.81c-.27,0-.52-.09-.75-.26Z"/>
        <path class="cls-2" d="M207.21,48.02c-.23-.17-.41-.41-.54-.7s-.2-.61-.2-.96v-10.31h1.01v3.02h3.1v1.3h-3.1v5.99c0,.17,.05,.32,.14,.44,.09,.12,.21,.18,.34,.18h2.62v1.3h-2.62c-.28,0-.53-.09-.76-.26Z"/>
        <path class="cls-2" d="M211.55,37.35v-1.3h1.01v1.3h-1.01Zm0,10.93v-9.21h1.01v9.21h-1.01Z"/>
        <path class="cls-2" d="M214.43,48.28v-9.21h5.81c.27,0,.52,.09,.75,.26,.23,.17,.41,.41,.54,.7,.14,.29,.2,.61,.2,.96v7.29h-1.01v-7.29c0-.17-.05-.31-.14-.44-.09-.12-.21-.18-.34-.18h-4.3c-.13,0-.25,.06-.35,.18-.1,.12-.15,.27-.15,.44v7.29h-1.01Z"/>
        <path class="cls-2" d="M224.11,51.92v-1.32h4.47c.13,0,.24-.06,.34-.18,.09-.12,.14-.27,.14-.44v-1.7h-4.78c-.27,0-.52-.09-.75-.26s-.41-.41-.54-.7c-.14-.29-.2-.61-.2-.96v-5.37c0-.35,.07-.67,.2-.96,.14-.29,.32-.52,.54-.7,.23-.17,.48-.26,.75-.26h4.3c.28,0,.53,.09,.76,.26,.23,.17,.41,.41,.54,.7,.13,.29,.2,.61,.2,.96v8.99c0,.36-.07,.69-.2,.98-.13,.29-.31,.52-.54,.7-.23,.17-.48,.26-.76,.26h-4.47Zm.17-4.94h4.3c.13,0,.24-.06,.34-.18,.09-.12,.14-.27,.14-.44v-5.37c0-.17-.05-.31-.14-.44-.1-.12-.21-.18-.34-.18h-4.3c-.13,0-.25,.06-.34,.18-.09,.12-.14,.27-.14,.44v5.37c0,.17,.05,.32,.14,.44,.09,.12,.21,.18,.34,.18Z"/>
        <path class="cls-2" d="M235.46,48.02c-.23-.17-.41-.41-.54-.7-.14-.29-.2-.61-.2-.96v-5.37c0-.35,.07-.67,.2-.96,.14-.29,.32-.52,.54-.7,.23-.17,.48-.26,.75-.26h5.78v1.3h-5.78c-.13,0-.25,.06-.34,.18-.09,.12-.14,.27-.14,.44v5.37c0,.17,.05,.32,.14,.44,.09,.12,.21,.18,.34,.18h5.81v1.3h-5.81c-.27,0-.52-.09-.75-.26Z"/>
        <path class="cls-2" d="M243.98,48.02c-.23-.17-.41-.41-.54-.7-.14-.29-.2-.61-.2-.96v-5.37c0-.35,.07-.67,.2-.96,.14-.29,.32-.52,.54-.7,.23-.17,.48-.26,.75-.26h4.3c.28,0,.53,.09,.76,.26,.23,.17,.41,.41,.54,.7,.14,.29,.2,.61,.2,.96v5.37c0,.35-.07,.67-.2,.96s-.32,.52-.54,.7-.48,.26-.76,.26h-4.3c-.27,0-.52-.09-.75-.26Zm.75-1.04h4.3c.13,0,.24-.06,.34-.18,.09-.12,.14-.27,.14-.44v-5.37c0-.17-.05-.31-.14-.44-.1-.12-.21-.18-.34-.18h-4.3c-.13,0-.25,.06-.34,.18-.09,.12-.14,.27-.14,.44v5.37c0,.17,.05,.32,.14,.44,.09,.12,.21,.18,.34,.18Z"/>
      </g>
    </g>
  </g>
</svg>